<mxfile host="app.diagrams.net" agent="Mozilla/5.0 (Windows NT 10.0; Win64; x64) AppleWebKit/537.36 (KHTML, like Gecko) Chrome/134.0.0.0 Safari/537.36" version="26.1.1" pages="3">
  <diagram id="f106602c-feb2-e66a-4537-3a34d633f6aa" name="HIGH LEVEL">
    <mxGraphModel dx="1430" dy="757" grid="1" gridSize="10" guides="1" tooltips="1" connect="1" arrows="1" fold="1" page="1" pageScale="1" pageWidth="1169" pageHeight="827" background="none" math="0" shadow="0">
      <root>
        <mxCell id="0" />
        <mxCell id="1" parent="0" />
        <mxCell id="Y7nA-uYCmfyMI7Zxyuve-1" value="&lt;b&gt;Google &lt;/b&gt;Cloud Platform" style="fillColor=#F6F6F6;strokeColor=none;shadow=0;gradientColor=none;fontSize=14;align=left;spacing=10;fontColor=#717171;9E9E9E;verticalAlign=top;spacingTop=-4;fontStyle=0;spacingLeft=40;html=1;" vertex="1" parent="1">
          <mxGeometry x="250" y="220" width="658" height="350" as="geometry" />
        </mxCell>
        <mxCell id="Y7nA-uYCmfyMI7Zxyuve-2" value="" style="shape=mxgraph.gcp2.google_cloud_platform;fillColor=#F6F6F6;strokeColor=none;shadow=0;gradientColor=none;" vertex="1" parent="Y7nA-uYCmfyMI7Zxyuve-1">
          <mxGeometry width="23" height="20" relative="1" as="geometry">
            <mxPoint x="20" y="10" as="offset" />
          </mxGeometry>
        </mxCell>
        <mxCell id="Y7nA-uYCmfyMI7Zxyuve-3" value="" style="strokeColor=#dddddd;shadow=1;strokeWidth=1;rounded=1;absoluteArcSize=1;arcSize=2;" vertex="1" parent="Y7nA-uYCmfyMI7Zxyuve-1">
          <mxGeometry x="454.75" y="75" width="185.25" height="70" as="geometry" />
        </mxCell>
        <mxCell id="Y7nA-uYCmfyMI7Zxyuve-4" value="&lt;font color=&quot;#000000&quot;&gt;Data Warehouse&lt;br&gt;(Execution Results)&lt;/font&gt;&lt;br&gt;BigQuery" style="editableCssRules=.*;html=1;fontColor=#999999;shape=image;verticalLabelPosition=middle;verticalAlign=middle;labelPosition=right;align=left;spacingLeft=20;part=1;points=[];imageAspect=0;image=data:image/svg+xml,PHN2ZyB4bWxucz0iaHR0cDovL3d3dy53My5vcmcvMjAwMC9zdmciIHhtbG5zOnY9Imh0dHBzOi8vdmVjdGEuaW8vbmFubyIgd2lkdGg9IjIwLjAwMTA0NTIyNzA1MDc4IiBoZWlnaHQ9IjIwLjAwMTA0NTIyNzA1MDc4IiBmaWxsLXJ1bGU9ImV2ZW5vZGQiIHZpZXdCb3g9IjAgMCAyMC4wMDEwNDUyMjcwNTA3OCAyMC4wMDEwNDUyMjcwNTA3OCI+JiN4YTsJPHN0eWxlIHR5cGU9InRleHQvY3NzIj4mI3hhOwkuc3Qwe2ZpbGw6I2FlY2JmYTt9JiN4YTsJLnN0MXtmaWxsOiM2NjlkZjY7fSYjeGE7CS5zdDJ7ZmlsbDojNDI4NWY0O30mI3hhOwk8L3N0eWxlPiYjeGE7CTxwYXRoIGNsYXNzPSJzdDAiIGQ9Ik00LjczIDguODN2Mi42M2E0LjkxIDQuOTEgMCAwIDAgMS43MSAxLjc0VjguODN6Ii8+JiN4YTsJPHBhdGggY2xhc3M9InN0MSIgZD0iTTcuODkgNi40MXY3LjUzQTcuNjIgNy42MiAwIDAgMCA5IDE0YTggOCAwIDAgMCAxIDBWNi40MXoiLz4mI3hhOwk8cGF0aCBjbGFzcz0ic3QwIiBkPSJNMTEuNjQgOS44NnYzLjI5YTUgNSAwIDAgMCAxLjctMS44MlY5Ljg2eiIvPiYjeGE7CTxwYXRoIGNsYXNzPSJzdDIiIGQ9Ik0xNS43NCAxNC4zMmwtMS40MiAxLjQyYS40Mi40MiAwIDAgMCAwIC42bDMuNTQgMy41NGEuNDIuNDIgMCAwIDAgLjU5IDBsMS40My0xLjQzYS40Mi40MiAwIDAgMCAwLS41OWwtMy41NC0zLjU0YS40Mi40MiAwIDAgMC0uNiAwIi8+JiN4YTsJPHBhdGggY2xhc3M9InN0MSIgZD0iTTkgMGE5IDkgMCAxIDAgMCAxOEE5IDkgMCAxIDAgOSAwbTAgMTUuNjlhNi42OCA2LjY4IDAgMCAxIC4wMDctMTMuMzYgNi42OCA2LjY4IDAgMCAxIDQuNzI3IDExLjQwM0E2LjY4IDYuNjggMCAwIDEgOSAxNS42OSIvPiYjeGE7PC9zdmc+;" vertex="1" parent="Y7nA-uYCmfyMI7Zxyuve-3">
          <mxGeometry width="30" height="30" relative="1" as="geometry">
            <mxPoint x="15" y="15" as="offset" />
          </mxGeometry>
        </mxCell>
        <mxCell id="Y7nA-uYCmfyMI7Zxyuve-11" value="Taxi Service" style="rounded=1;absoluteArcSize=1;arcSize=2;html=1;strokeColor=#4284F3;gradientColor=none;shadow=0;dashed=1;fontSize=12;fontColor=#9E9E9E;align=left;verticalAlign=top;spacing=10;spacingTop=-4;fillColor=none;dashPattern=1 2;strokeWidth=2;" vertex="1" parent="1">
          <mxGeometry x="20" y="260" width="640" height="220" as="geometry" />
        </mxCell>
        <mxCell id="Y7nA-uYCmfyMI7Zxyuve-12" style="edgeStyle=orthogonalEdgeStyle;rounded=0;html=1;dashed=0;labelBackgroundColor=none;startArrow=none;startFill=0;startSize=4;endArrow=blockThin;endFill=1;endSize=4;strokeColor=#4284F3;strokeWidth=2;fontSize=12;exitX=0;exitY=0.5;exitDx=0;exitDy=0;entryX=0.5;entryY=1;entryDx=0;entryDy=0;" edge="1" parent="1" source="Y7nA-uYCmfyMI7Zxyuve-27" target="Y7nA-uYCmfyMI7Zxyuve-13">
          <mxGeometry relative="1" as="geometry">
            <Array as="points">
              <mxPoint x="155" y="430" />
            </Array>
            <mxPoint x="235.25" y="305" as="sourcePoint" />
          </mxGeometry>
        </mxCell>
        <mxCell id="Y7nA-uYCmfyMI7Zxyuve-13" value="SchwarzShuttle&lt;br&gt;&lt;font style=&quot;font-size: 10px&quot;&gt;Application&lt;/font&gt;" style="rounded=1;absoluteArcSize=1;arcSize=2;html=1;strokeColor=none;gradientColor=none;shadow=0;dashed=0;fontSize=12;fontColor=#9E9E9E;align=left;verticalAlign=top;spacing=10;spacingTop=-4;fillColor=#EFEBE9;" vertex="1" parent="1">
          <mxGeometry x="100" y="267.88" width="110" height="125" as="geometry" />
        </mxCell>
        <mxCell id="Y7nA-uYCmfyMI7Zxyuve-14" value="" style="strokeColor=#dddddd;fillColor=#ffffff;shadow=1;strokeWidth=1;rounded=1;absoluteArcSize=1;arcSize=2;labelPosition=center;verticalLabelPosition=middle;align=center;verticalAlign=bottom;spacingLeft=0;fontColor=#999999;fontSize=12;whiteSpace=wrap;spacingBottom=2;html=1;" vertex="1" parent="1">
          <mxGeometry x="120" y="312.88" width="70" height="70" as="geometry" />
        </mxCell>
        <mxCell id="Y7nA-uYCmfyMI7Zxyuve-15" value="" style="dashed=0;connectable=0;html=1;fillColor=#757575;strokeColor=none;shape=mxgraph.gcp2.application;part=1;" vertex="1" parent="Y7nA-uYCmfyMI7Zxyuve-14">
          <mxGeometry x="0.5" width="50" height="40" relative="1" as="geometry">
            <mxPoint x="-25" y="15" as="offset" />
          </mxGeometry>
        </mxCell>
        <mxCell id="Y7nA-uYCmfyMI7Zxyuve-16" style="edgeStyle=orthogonalEdgeStyle;rounded=0;html=1;dashed=0;labelBackgroundColor=none;startArrow=none;startFill=0;startSize=4;endArrow=blockThin;endFill=1;endSize=4;strokeColor=#4284F3;strokeWidth=2;fontSize=12;" edge="1" parent="1" source="Y7nA-uYCmfyMI7Zxyuve-23" target="Y7nA-uYCmfyMI7Zxyuve-25">
          <mxGeometry relative="1" as="geometry" />
        </mxCell>
        <mxCell id="Y7nA-uYCmfyMI7Zxyuve-17" style="edgeStyle=orthogonalEdgeStyle;rounded=0;html=1;dashed=0;labelBackgroundColor=none;startArrow=none;startFill=0;startSize=4;endArrow=blockThin;endFill=1;endSize=4;strokeColor=#4284F3;strokeWidth=2;fontSize=12;entryX=1;entryY=0.5;entryDx=0;entryDy=0;" edge="1" parent="1" source="Y7nA-uYCmfyMI7Zxyuve-25" target="Y7nA-uYCmfyMI7Zxyuve-27">
          <mxGeometry relative="1" as="geometry">
            <Array as="points">
              <mxPoint x="554" y="430" />
            </Array>
            <mxPoint x="554.0285714285715" y="410" as="targetPoint" />
          </mxGeometry>
        </mxCell>
        <mxCell id="Y7nA-uYCmfyMI7Zxyuve-18" value="Report &amp;amp; Share&lt;br&gt;&lt;font style=&quot;font-size: 10px&quot;&gt;Business Analysis&lt;/font&gt;&lt;br&gt;" style="rounded=1;absoluteArcSize=1;arcSize=2;html=1;strokeColor=none;gradientColor=none;shadow=0;dashed=0;fontSize=12;fontColor=#9E9E9E;align=left;verticalAlign=top;spacing=10;spacingTop=-4;fillColor=#F3E5F5;" vertex="1" parent="1">
          <mxGeometry x="930" y="266.38" width="170" height="128" as="geometry" />
        </mxCell>
        <mxCell id="Y7nA-uYCmfyMI7Zxyuve-19" value="" style="strokeColor=#dddddd;fillColor=#ffffff;shadow=1;strokeWidth=1;rounded=1;absoluteArcSize=1;arcSize=2;labelPosition=center;verticalLabelPosition=middle;align=center;verticalAlign=bottom;spacingLeft=0;fontColor=#999999;fontSize=12;whiteSpace=wrap;spacingBottom=2;html=1;" vertex="1" parent="1">
          <mxGeometry x="940" y="314.88" width="70" height="70" as="geometry" />
        </mxCell>
        <mxCell id="Y7nA-uYCmfyMI7Zxyuve-20" value="" style="dashed=0;connectable=0;html=1;fillColor=#757575;strokeColor=none;shape=mxgraph.gcp2.report;part=1;" vertex="1" parent="Y7nA-uYCmfyMI7Zxyuve-19">
          <mxGeometry x="0.5" width="50" height="50" relative="1" as="geometry">
            <mxPoint x="-25" y="10" as="offset" />
          </mxGeometry>
        </mxCell>
        <mxCell id="Y7nA-uYCmfyMI7Zxyuve-21" value="" style="strokeColor=#dddddd;fillColor=#ffffff;shadow=1;strokeWidth=1;rounded=1;absoluteArcSize=1;arcSize=2;labelPosition=center;verticalLabelPosition=middle;align=center;verticalAlign=bottom;spacingLeft=0;fontColor=#999999;fontSize=12;whiteSpace=wrap;spacingBottom=2;html=1;" vertex="1" parent="1">
          <mxGeometry x="1020" y="314.88" width="70" height="70" as="geometry" />
        </mxCell>
        <mxCell id="Y7nA-uYCmfyMI7Zxyuve-22" value="" style="dashed=0;connectable=0;html=1;fillColor=#757575;strokeColor=none;shape=mxgraph.gcp2.users;part=1;" vertex="1" parent="Y7nA-uYCmfyMI7Zxyuve-21">
          <mxGeometry x="0.5" width="50" height="31.5" relative="1" as="geometry">
            <mxPoint x="-25" y="19.25" as="offset" />
          </mxGeometry>
        </mxCell>
        <mxCell id="Y7nA-uYCmfyMI7Zxyuve-23" value="" style="strokeColor=#dddddd;shadow=1;strokeWidth=1;rounded=1;absoluteArcSize=1;arcSize=2;" vertex="1" parent="1">
          <mxGeometry x="275" y="300" width="130" height="60" as="geometry" />
        </mxCell>
        <mxCell id="Y7nA-uYCmfyMI7Zxyuve-24" value="&lt;font color=&quot;#000000&quot;&gt;Taxi Trips&lt;/font&gt;&lt;br&gt;Pub/Sub" style="editableCssRules=.*;html=1;fontColor=#999999;shape=image;verticalLabelPosition=middle;verticalAlign=middle;labelPosition=right;align=left;spacingLeft=20;part=1;points=[];imageAspect=0;image=data:image/svg+xml,PHN2ZyB4bWxucz0iaHR0cDovL3d3dy53My5vcmcvMjAwMC9zdmciIHhtbG5zOnY9Imh0dHBzOi8vdmVjdGEuaW8vbmFubyIgd2lkdGg9IjE4LjMxOTk5OTY5NDgyNDIyIiBoZWlnaHQ9IjIwLjAwMDAwMTkwNzM0ODYzMyIgdmlld0JveD0iMCAwIDE4LjMxOTk5OTY5NDgyNDIyIDIwLjAwMDAwMTkwNzM0ODYzMyI+JiN4YTsJPHN0eWxlIHR5cGU9InRleHQvY3NzIj4mI3hhOwkuc3Qwe2ZpbGw6IzY2OWRmNjt9JiN4YTsJLnN0MXtmaWxsOiM0Mjg1ZjQ7fSYjeGE7CS5zdDJ7ZmlsbDojYWVjYmZhO30mI3hhOwk8L3N0eWxlPiYjeGE7CTxkZWZzPiYjeGE7CQk8ZmlsdGVyIGlkPSJBIiB4PSI0LjY0IiB5PSI0LjE5IiB3aWR0aD0iMTQuNzMiIGhlaWdodD0iMTIuNzYiIGZpbHRlclVuaXRzPSJ1c2VyU3BhY2VPblVzZSIgY29sb3ItaW50ZXJwb2xhdGlvbi1maWx0ZXJzPSJzUkdCIj4mI3hhOwkJCTxmZUZsb29kIGZsb29kLWNvbG9yPSIjZmZmIi8+JiN4YTsJCQk8ZmVCbGVuZCBpbj0iU291cmNlR3JhcGhpYyIvPiYjeGE7CQk8L2ZpbHRlcj4mI3hhOwkJPG1hc2sgaWQ9IkIiIHg9IjQuNjQiIHk9IjQuMTkiIHdpZHRoPSIxNC43MyIgaGVpZ2h0PSIxMi43NiIgbWFza1VuaXRzPSJ1c2VyU3BhY2VPblVzZSI+JiN4YTsJCQk8Y2lyY2xlIGN4PSIxMiIgY3k9IjEyLjIzIiByPSIzLjU4IiBmaWx0ZXI9InVybCgjQSkiLz4mI3hhOwkJPC9tYXNrPiYjeGE7CTwvZGVmcz4mI3hhOwk8ZyBjbGFzcz0ic3QwIj4mI3hhOwkJPGNpcmNsZSBjeD0iMTYuMTMiIGN5PSI2LjIxIiByPSIxLjcyIi8+JiN4YTsJCTxjaXJjbGUgY3g9IjIuMTkiIGN5PSI2LjIxIiByPSIxLjcyIi8+JiN4YTsJCTxjaXJjbGUgY3g9IjkuMTYiIGN5PSIxOC4yOCIgcj0iMS43MiIvPiYjeGE7CTwvZz4mI3hhOwk8ZyBtYXNrPSJ1cmwoI0IpIiB0cmFuc2Zvcm09InRyYW5zbGF0ZSgtMi44NCAtMikiPiYjeGE7CQk8cGF0aCB0cmFuc2Zvcm09Im1hdHJpeCguNSAtLjg3IC44NyAuNSAtNC41OSAyMC41MykiIGQ9Ik0xNC42OSAxMC4yMmgxLjU5djguMDRoLTEuNTl6IiBjbGFzcz0ic3QxIi8+JiN4YTsJCTxwYXRoIHRyYW5zZm9ybT0icm90YXRlKDMzMCA4LjUyMyAxNC4yNDQpIiBkPSJNNC40OSAxMy40NWg4LjA0djEuNTlINC40OXoiIGNsYXNzPSJzdDEiLz4mI3hhOwkJPHBhdGggZD0iTTExLjIgNC4xOWgxLjU5djguMDRIMTEuMnoiIGNsYXNzPSJzdDEiLz4mI3hhOwk8L2c+JiN4YTsJPGcgY2xhc3M9InN0MiI+JiN4YTsJCTxjaXJjbGUgY3g9IjkuMTYiIGN5PSIxMC4yMyIgcj0iMi43OCIvPiYjeGE7CQk8Y2lyY2xlIGN4PSIyLjE5IiBjeT0iMTQuMjUiIHI9IjIuMTkiLz4mI3hhOwkJPGNpcmNsZSBjeD0iMTYuMTMiIGN5PSIxNC4yNSIgcj0iMi4xOSIvPiYjeGE7CQk8Y2lyY2xlIGN4PSI5LjE2IiBjeT0iMi4xOSIgcj0iMi4xOSIvPiYjeGE7CTwvZz4mI3hhOzwvc3ZnPg==;" vertex="1" parent="Y7nA-uYCmfyMI7Zxyuve-23">
          <mxGeometry width="27" height="30" relative="1" as="geometry">
            <mxPoint x="16" y="15" as="offset" />
          </mxGeometry>
        </mxCell>
        <mxCell id="Y7nA-uYCmfyMI7Zxyuve-25" value="" style="strokeColor=#dddddd;shadow=1;strokeWidth=1;rounded=1;absoluteArcSize=1;arcSize=2;" vertex="1" parent="1">
          <mxGeometry x="445.5" y="300" width="194.5" height="60" as="geometry" />
        </mxCell>
        <mxCell id="Y7nA-uYCmfyMI7Zxyuve-26" value="&lt;font color=&quot;#000000&quot;&gt;Processing&lt;br&gt;(Taxi Dataset)&lt;/font&gt;&lt;br&gt;Dataflow" style="editableCssRules=.*;html=1;fontColor=#999999;shape=image;verticalLabelPosition=middle;verticalAlign=middle;labelPosition=right;align=left;spacingLeft=20;part=1;points=[];imageAspect=0;image=data:image/svg+xml,PHN2ZyB4bWxucz0iaHR0cDovL3d3dy53My5vcmcvMjAwMC9zdmciIHhtbG5zOnY9Imh0dHBzOi8vdmVjdGEuaW8vbmFubyIgd2lkdGg9IjE0LjUxOTk5OTUwNDA4OTM1NSIgaGVpZ2h0PSIyMCIgdmlld0JveD0iMCAwIDE0LjUxOTk5OTUwNDA4OTM1NSAyMCI+JiN4YTsJPHN0eWxlIHR5cGU9InRleHQvY3NzIj4mI3hhOwkuc3Qwe2ZpbGwtcnVsZTpldmVub2RkfSYjeGE7CS5zdDF7ZmlsbDojNjY5ZGY2O30mI3hhOwkuc3Qye2ZpbGw6I2FlY2JmYTt9JiN4YTsJLnN0M3tmaWxsOiM0Mjg1ZjQ7fSYjeGE7CTwvc3R5bGU+JiN4YTsJPGcgY2xhc3M9InN0MCI+JiN4YTsJCTxwYXRoIGNsYXNzPSJzdDEiIGQ9Ik03LjM3IDIuMDNsLTEuNzIuOTYgMS41MiAxLjUtLjAyIDEuNzMgMS4wMi4wMS4wMi0xLjczIDQuMjQgMi41Ni0uMDEgMS4wNyAxLjc3LjAzVjYuMTFMOS4wNSAzLjA0bC0uMjctLjk0eiIvPiYjeGE7CQk8cGF0aCBjbGFzcz0ic3QyIiBkPSJNNy4zNiAyLjAzbC0xLjQyLjM1LS4yOS42MUwuMzkgNS45Mi4zNiA3Ljk3IDIuMTQgOGwuMDItMS4wNyA0LjMxLTIuNDUtLjAyIDEuNzMuODYuMDEuMDYtNC4xOXoiLz4mI3hhOwkJPGcgY2xhc3M9InN0MSI+JiN4YTsJCQk8cGF0aCBkPSJNNy4zNiAyLjAzTDMuOTUgMCAyLjIxLjk1bDMuNDQgMi4wNCAxLjcyLS45NnptLjcxIDExLjc2bC0xLjcyLS4wMi0uMDIgMS43Mi44MiAyLjQ4IDEuNDItLjEyLjI5LS44NSA1LjI3LTIuOTMuMDMtMi4wOS0xLjc5LS4wMi0uMDIgMS4xLTQuMyAyLjQ1eiIvPiYjeGE7CQkJPHBhdGggZD0iTTcuMTUgMTcuOTdsLTMuNDYgMS45NGgtLjA1bC0xLjY2LS45OSAzLjQ5LTEuOTYgMS42OCAxLjAxeiIvPiYjeGE7CQk8L2c+JiN4YTsJCTxwYXRoIGNsYXNzPSJzdDMiIGQ9Ik0xMC44OC4wOWgtLjA1TDcuMzcgMi4wM2wxLjY4IDEuMDEgMy40OS0xLjk2ek0xMC42MiAyMGgtLjA1bC0zLjQyLTIuMDNoMCAwIDBsMS43Mi0uOTYgMy40NCAyLjA0eiIvPiYjeGE7CQk8cGF0aCBjbGFzcz0ic3QyIiBkPSJNLjMzIDEzLjg5di0yaDEuNzZsLS4wMSAxLjA0IDQuMjUgMi41Ni4wMi0xLjcyLjg2LjAxLS4wNiA0LjE4LTEuNjgtMXoiLz4mI3hhOwk8L2c+JiN4YTsJPGNpcmNsZSBjbGFzcz0ic3QyIiBjeD0iMTMuMzgiIGN5PSIxMC4wNCIgcj0iMS4xNCIvPiYjeGE7CTxjaXJjbGUgY2xhc3M9InN0MiIgY3g9IjEuMTQiIGN5PSI5Ljg4IiByPSIxLjE0Ii8+JiN4YTsJPGNpcmNsZSBjbGFzcz0ic3QyIiBjeD0iNy4zMiIgY3k9IjcuOTkiIHI9IjEuMTQiLz4mI3hhOwk8Y2lyY2xlIGNsYXNzPSJzdDIiIGN4PSI3LjIzIiBjeT0iMTIiIHI9IjEuMTQiLz4mI3hhOzwvc3ZnPg==;" vertex="1" parent="Y7nA-uYCmfyMI7Zxyuve-25">
          <mxGeometry width="22" height="30" relative="1" as="geometry">
            <mxPoint x="19" y="15" as="offset" />
          </mxGeometry>
        </mxCell>
        <mxCell id="Y7nA-uYCmfyMI7Zxyuve-27" value="" style="strokeColor=#dddddd;shadow=1;strokeWidth=1;rounded=1;absoluteArcSize=1;arcSize=2;" vertex="1" parent="1">
          <mxGeometry x="350" y="400" width="170" height="60" as="geometry" />
        </mxCell>
        <mxCell id="Y7nA-uYCmfyMI7Zxyuve-28" value="&lt;font color=&quot;#000000&quot;&gt;Taxi Response&lt;/font&gt;&lt;br&gt;Pub/Sub" style="editableCssRules=.*;html=1;fontColor=#999999;shape=image;verticalLabelPosition=middle;verticalAlign=middle;labelPosition=right;align=left;spacingLeft=20;part=1;points=[];imageAspect=0;image=data:image/svg+xml,PHN2ZyB4bWxucz0iaHR0cDovL3d3dy53My5vcmcvMjAwMC9zdmciIHhtbG5zOnY9Imh0dHBzOi8vdmVjdGEuaW8vbmFubyIgd2lkdGg9IjE4LjMxOTk5OTY5NDgyNDIyIiBoZWlnaHQ9IjIwLjAwMDAwMTkwNzM0ODYzMyIgdmlld0JveD0iMCAwIDE4LjMxOTk5OTY5NDgyNDIyIDIwLjAwMDAwMTkwNzM0ODYzMyI+JiN4YTsJPHN0eWxlIHR5cGU9InRleHQvY3NzIj4mI3hhOwkuc3Qwe2ZpbGw6IzY2OWRmNjt9JiN4YTsJLnN0MXtmaWxsOiM0Mjg1ZjQ7fSYjeGE7CS5zdDJ7ZmlsbDojYWVjYmZhO30mI3hhOwk8L3N0eWxlPiYjeGE7CTxkZWZzPiYjeGE7CQk8ZmlsdGVyIGlkPSJBIiB4PSI0LjY0IiB5PSI0LjE5IiB3aWR0aD0iMTQuNzMiIGhlaWdodD0iMTIuNzYiIGZpbHRlclVuaXRzPSJ1c2VyU3BhY2VPblVzZSIgY29sb3ItaW50ZXJwb2xhdGlvbi1maWx0ZXJzPSJzUkdCIj4mI3hhOwkJCTxmZUZsb29kIGZsb29kLWNvbG9yPSIjZmZmIi8+JiN4YTsJCQk8ZmVCbGVuZCBpbj0iU291cmNlR3JhcGhpYyIvPiYjeGE7CQk8L2ZpbHRlcj4mI3hhOwkJPG1hc2sgaWQ9IkIiIHg9IjQuNjQiIHk9IjQuMTkiIHdpZHRoPSIxNC43MyIgaGVpZ2h0PSIxMi43NiIgbWFza1VuaXRzPSJ1c2VyU3BhY2VPblVzZSI+JiN4YTsJCQk8Y2lyY2xlIGN4PSIxMiIgY3k9IjEyLjIzIiByPSIzLjU4IiBmaWx0ZXI9InVybCgjQSkiLz4mI3hhOwkJPC9tYXNrPiYjeGE7CTwvZGVmcz4mI3hhOwk8ZyBjbGFzcz0ic3QwIj4mI3hhOwkJPGNpcmNsZSBjeD0iMTYuMTMiIGN5PSI2LjIxIiByPSIxLjcyIi8+JiN4YTsJCTxjaXJjbGUgY3g9IjIuMTkiIGN5PSI2LjIxIiByPSIxLjcyIi8+JiN4YTsJCTxjaXJjbGUgY3g9IjkuMTYiIGN5PSIxOC4yOCIgcj0iMS43MiIvPiYjeGE7CTwvZz4mI3hhOwk8ZyBtYXNrPSJ1cmwoI0IpIiB0cmFuc2Zvcm09InRyYW5zbGF0ZSgtMi44NCAtMikiPiYjeGE7CQk8cGF0aCB0cmFuc2Zvcm09Im1hdHJpeCguNSAtLjg3IC44NyAuNSAtNC41OSAyMC41MykiIGQ9Ik0xNC42OSAxMC4yMmgxLjU5djguMDRoLTEuNTl6IiBjbGFzcz0ic3QxIi8+JiN4YTsJCTxwYXRoIHRyYW5zZm9ybT0icm90YXRlKDMzMCA4LjUyMyAxNC4yNDQpIiBkPSJNNC40OSAxMy40NWg4LjA0djEuNTlINC40OXoiIGNsYXNzPSJzdDEiLz4mI3hhOwkJPHBhdGggZD0iTTExLjIgNC4xOWgxLjU5djguMDRIMTEuMnoiIGNsYXNzPSJzdDEiLz4mI3hhOwk8L2c+JiN4YTsJPGcgY2xhc3M9InN0MiI+JiN4YTsJCTxjaXJjbGUgY3g9IjkuMTYiIGN5PSIxMC4yMyIgcj0iMi43OCIvPiYjeGE7CQk8Y2lyY2xlIGN4PSIyLjE5IiBjeT0iMTQuMjUiIHI9IjIuMTkiLz4mI3hhOwkJPGNpcmNsZSBjeD0iMTYuMTMiIGN5PSIxNC4yNSIgcj0iMi4xOSIvPiYjeGE7CQk8Y2lyY2xlIGN4PSI5LjE2IiBjeT0iMi4xOSIgcj0iMi4xOSIvPiYjeGE7CTwvZz4mI3hhOzwvc3ZnPg==;" vertex="1" parent="Y7nA-uYCmfyMI7Zxyuve-27">
          <mxGeometry width="27" height="30" relative="1" as="geometry">
            <mxPoint x="16" y="15" as="offset" />
          </mxGeometry>
        </mxCell>
        <mxCell id="Y7nA-uYCmfyMI7Zxyuve-29" style="edgeStyle=orthogonalEdgeStyle;rounded=0;html=1;dashed=0;labelBackgroundColor=none;startArrow=none;startFill=0;startSize=4;endArrow=blockThin;endFill=1;endSize=4;strokeColor=#4284F3;strokeWidth=2;fontSize=12;exitX=1;exitY=0.5;exitDx=0;exitDy=0;entryX=0;entryY=0.5;entryDx=0;entryDy=0;" edge="1" parent="1" source="Y7nA-uYCmfyMI7Zxyuve-13" target="Y7nA-uYCmfyMI7Zxyuve-23">
          <mxGeometry relative="1" as="geometry">
            <mxPoint x="427" y="340" as="sourcePoint" />
            <mxPoint x="456" y="340" as="targetPoint" />
          </mxGeometry>
        </mxCell>
        <mxCell id="VRDlORPoqPPFZuGNQdhC-2" style="edgeStyle=orthogonalEdgeStyle;rounded=0;html=1;dashed=0;labelBackgroundColor=none;startArrow=none;startFill=0;startSize=4;endArrow=blockThin;endFill=1;endSize=4;strokeColor=#4284F3;strokeWidth=2;fontSize=12;exitX=1;exitY=0.5;exitDx=0;exitDy=0;entryX=0;entryY=0.5;entryDx=0;entryDy=0;" edge="1" parent="1" source="Y7nA-uYCmfyMI7Zxyuve-25" target="Y7nA-uYCmfyMI7Zxyuve-3">
          <mxGeometry relative="1" as="geometry">
            <mxPoint x="639.75" y="334.66" as="sourcePoint" />
            <mxPoint x="704.75" y="334.66" as="targetPoint" />
          </mxGeometry>
        </mxCell>
        <mxCell id="VRDlORPoqPPFZuGNQdhC-3" style="edgeStyle=orthogonalEdgeStyle;rounded=0;html=1;dashed=0;labelBackgroundColor=none;startArrow=none;startFill=0;startSize=4;endArrow=blockThin;endFill=1;endSize=4;strokeColor=#4284F3;strokeWidth=2;fontSize=12;exitX=1;exitY=0.5;exitDx=0;exitDy=0;entryX=0;entryY=0.5;entryDx=0;entryDy=0;" edge="1" parent="1" source="Y7nA-uYCmfyMI7Zxyuve-3" target="Y7nA-uYCmfyMI7Zxyuve-18">
          <mxGeometry relative="1" as="geometry">
            <mxPoint x="875" y="331.54" as="sourcePoint" />
            <mxPoint x="940" y="331.54" as="targetPoint" />
          </mxGeometry>
        </mxCell>
      </root>
    </mxGraphModel>
  </diagram>
  <diagram id="fgm5P-EmkwAAcrFxODos" name="LOW LEVEL">
    <mxGraphModel dx="2924" dy="1098" grid="1" gridSize="10" guides="1" tooltips="1" connect="1" arrows="1" fold="1" page="1" pageScale="1" pageWidth="850" pageHeight="1100" math="0" shadow="0">
      <root>
        <mxCell id="0" />
        <mxCell id="1" parent="0" />
        <mxCell id="c4FLbgzSVyieLMumJbFi-1" value="&lt;b&gt;Google &lt;/b&gt;Cloud Platform" style="fillColor=#F6F6F6;strokeColor=none;shadow=0;gradientColor=none;fontSize=14;align=left;spacing=10;fontColor=#717171;9E9E9E;verticalAlign=top;spacingTop=-4;fontStyle=0;spacingLeft=40;html=1;" parent="1" vertex="1">
          <mxGeometry x="-80" y="220" width="1080" height="800" as="geometry" />
        </mxCell>
        <mxCell id="c4FLbgzSVyieLMumJbFi-2" value="" style="shape=mxgraph.gcp2.google_cloud_platform;fillColor=#F6F6F6;strokeColor=none;shadow=0;gradientColor=none;" parent="c4FLbgzSVyieLMumJbFi-1" vertex="1">
          <mxGeometry width="23" height="20" relative="1" as="geometry">
            <mxPoint x="20" y="10" as="offset" />
          </mxGeometry>
        </mxCell>
        <mxCell id="c4FLbgzSVyieLMumJbFi-3" value="" style="strokeColor=#6c8ebf;shadow=1;strokeWidth=1;rounded=1;absoluteArcSize=1;arcSize=2;fillColor=#dae8fc;" parent="c4FLbgzSVyieLMumJbFi-1" vertex="1">
          <mxGeometry x="51.69869158878504" y="82.42" width="210.731214953271" height="77.58" as="geometry" />
        </mxCell>
        <mxCell id="c4FLbgzSVyieLMumJbFi-4" value="&lt;font color=&quot;#000000&quot;&gt;Topic&lt;/font&gt;&lt;br&gt;Cloud Pub&lt;hr&gt;&lt;font style=&quot;font-size: 11px&quot;&gt;Topic Name:&amp;nbsp;&lt;span style=&quot;background-color: transparent; color: light-dark(rgb(153, 153, 153), rgb(106, 106, 106));&quot;&gt;taxi-trips&lt;/span&gt;&lt;span style=&quot;background-color: transparent; color: light-dark(rgb(153, 153, 153), rgb(106, 106, 106));&quot;&gt;&amp;nbsp;&lt;/span&gt;&lt;br&gt;&lt;/font&gt;" style="sketch=0;dashed=0;connectable=0;html=1;part=1;labelPosition=right;verticalLabelPosition=middle;align=left;verticalAlign=top;spacingLeft=5;fontColor=#999999;fontSize=12;spacingTop=-8;shape=image;image=data:image/svg+xml,PHN2ZyB4bWxucz0iaHR0cDovL3d3dy53My5vcmcvMjAwMC9zdmciIHhtbG5zOnY9Imh0dHBzOi8vdmVjdGEuaW8vbmFubyIgd2lkdGg9IjE4LjMxOTk5OTY5NDgyNDIyIiBoZWlnaHQ9IjIwLjAwMDAwMTkwNzM0ODYzMyIgdmlld0JveD0iMCAwIDE4LjMxOTk5OTY5NDgyNDIyIDIwLjAwMDAwMTkwNzM0ODYzMyI+JiN4YTsJPHN0eWxlIHR5cGU9InRleHQvY3NzIj4mI3hhOwkuc3Qwe2ZpbGw6IzY2OWRmNjt9JiN4YTsJLnN0MXtmaWxsOiM0Mjg1ZjQ7fSYjeGE7CS5zdDJ7ZmlsbDojYWVjYmZhO30mI3hhOwk8L3N0eWxlPiYjeGE7CTxkZWZzPiYjeGE7CQk8ZmlsdGVyIGlkPSJBIiB4PSI0LjY0IiB5PSI0LjE5IiB3aWR0aD0iMTQuNzMiIGhlaWdodD0iMTIuNzYiIGZpbHRlclVuaXRzPSJ1c2VyU3BhY2VPblVzZSIgY29sb3ItaW50ZXJwb2xhdGlvbi1maWx0ZXJzPSJzUkdCIj4mI3hhOwkJCTxmZUZsb29kIGZsb29kLWNvbG9yPSIjZmZmIi8+JiN4YTsJCQk8ZmVCbGVuZCBpbj0iU291cmNlR3JhcGhpYyIvPiYjeGE7CQk8L2ZpbHRlcj4mI3hhOwkJPG1hc2sgaWQ9IkIiIHg9IjQuNjQiIHk9IjQuMTkiIHdpZHRoPSIxNC43MyIgaGVpZ2h0PSIxMi43NiIgbWFza1VuaXRzPSJ1c2VyU3BhY2VPblVzZSI+JiN4YTsJCQk8Y2lyY2xlIGN4PSIxMiIgY3k9IjEyLjIzIiByPSIzLjU4IiBmaWx0ZXI9InVybCgjQSkiLz4mI3hhOwkJPC9tYXNrPiYjeGE7CTwvZGVmcz4mI3hhOwk8ZyBjbGFzcz0ic3QwIj4mI3hhOwkJPGNpcmNsZSBjeD0iMTYuMTMiIGN5PSI2LjIxIiByPSIxLjcyIi8+JiN4YTsJCTxjaXJjbGUgY3g9IjIuMTkiIGN5PSI2LjIxIiByPSIxLjcyIi8+JiN4YTsJCTxjaXJjbGUgY3g9IjkuMTYiIGN5PSIxOC4yOCIgcj0iMS43MiIvPiYjeGE7CTwvZz4mI3hhOwk8ZyBtYXNrPSJ1cmwoI0IpIiB0cmFuc2Zvcm09InRyYW5zbGF0ZSgtMi44NCAtMikiPiYjeGE7CQk8cGF0aCB0cmFuc2Zvcm09Im1hdHJpeCguNSAtLjg3IC44NyAuNSAtNC41OSAyMC41MykiIGQ9Ik0xNC42OSAxMC4yMmgxLjU5djguMDRoLTEuNTl6IiBjbGFzcz0ic3QxIi8+JiN4YTsJCTxwYXRoIHRyYW5zZm9ybT0icm90YXRlKDMzMCA4LjUyMyAxNC4yNDQpIiBkPSJNNC40OSAxMy40NWg4LjA0djEuNTlINC40OXoiIGNsYXNzPSJzdDEiLz4mI3hhOwkJPHBhdGggZD0iTTExLjIgNC4xOWgxLjU5djguMDRIMTEuMnoiIGNsYXNzPSJzdDEiLz4mI3hhOwk8L2c+JiN4YTsJPGcgY2xhc3M9InN0MiI+JiN4YTsJCTxjaXJjbGUgY3g9IjkuMTYiIGN5PSIxMC4yMyIgcj0iMi43OCIvPiYjeGE7CQk8Y2lyY2xlIGN4PSIyLjE5IiBjeT0iMTQuMjUiIHI9IjIuMTkiLz4mI3hhOwkJPGNpcmNsZSBjeD0iMTYuMTMiIGN5PSIxNC4yNSIgcj0iMi4xOSIvPiYjeGE7CQk8Y2lyY2xlIGN4PSI5LjE2IiBjeT0iMi4xOSIgcj0iMi4xOSIvPiYjeGE7CTwvZz4mI3hhOzwvc3ZnPg==;" parent="c4FLbgzSVyieLMumJbFi-3" vertex="1">
          <mxGeometry width="42" height="42" relative="1" as="geometry">
            <mxPoint x="5" y="7" as="offset" />
          </mxGeometry>
        </mxCell>
        <mxCell id="c4FLbgzSVyieLMumJbFi-5" value="" style="strokeColor=#6c8ebf;shadow=1;strokeWidth=1;rounded=1;absoluteArcSize=1;arcSize=2;fillColor=#dae8fc;" parent="c4FLbgzSVyieLMumJbFi-1" vertex="1">
          <mxGeometry x="332.49869158878505" y="82.42" width="233.92598130841117" height="77.58" as="geometry" />
        </mxCell>
        <mxCell id="c4FLbgzSVyieLMumJbFi-6" value="&lt;font color=&quot;#000000&quot;&gt;Subscription&lt;/font&gt;&lt;br&gt;Cloud Sub&lt;hr&gt;&lt;font style=&quot;font-size: 11px&quot;&gt;Subscription Name: t&lt;/font&gt;&lt;span style=&quot;font-size: 11px; background-color: transparent; color: light-dark(rgb(153, 153, 153), rgb(106, 106, 106));&quot;&gt;axi-trips-sub&lt;/span&gt;" style="sketch=0;dashed=0;connectable=0;html=1;part=1;labelPosition=right;verticalLabelPosition=middle;align=left;verticalAlign=top;spacingLeft=5;fontColor=#999999;fontSize=12;spacingTop=-8;shape=image;image=data:image/svg+xml,PHN2ZyB4bWxucz0iaHR0cDovL3d3dy53My5vcmcvMjAwMC9zdmciIHhtbG5zOnY9Imh0dHBzOi8vdmVjdGEuaW8vbmFubyIgd2lkdGg9IjE4LjMxOTk5OTY5NDgyNDIyIiBoZWlnaHQ9IjIwLjAwMDAwMTkwNzM0ODYzMyIgdmlld0JveD0iMCAwIDE4LjMxOTk5OTY5NDgyNDIyIDIwLjAwMDAwMTkwNzM0ODYzMyI+JiN4YTsJPHN0eWxlIHR5cGU9InRleHQvY3NzIj4mI3hhOwkuc3Qwe2ZpbGw6IzY2OWRmNjt9JiN4YTsJLnN0MXtmaWxsOiM0Mjg1ZjQ7fSYjeGE7CS5zdDJ7ZmlsbDojYWVjYmZhO30mI3hhOwk8L3N0eWxlPiYjeGE7CTxkZWZzPiYjeGE7CQk8ZmlsdGVyIGlkPSJBIiB4PSI0LjY0IiB5PSI0LjE5IiB3aWR0aD0iMTQuNzMiIGhlaWdodD0iMTIuNzYiIGZpbHRlclVuaXRzPSJ1c2VyU3BhY2VPblVzZSIgY29sb3ItaW50ZXJwb2xhdGlvbi1maWx0ZXJzPSJzUkdCIj4mI3hhOwkJCTxmZUZsb29kIGZsb29kLWNvbG9yPSIjZmZmIi8+JiN4YTsJCQk8ZmVCbGVuZCBpbj0iU291cmNlR3JhcGhpYyIvPiYjeGE7CQk8L2ZpbHRlcj4mI3hhOwkJPG1hc2sgaWQ9IkIiIHg9IjQuNjQiIHk9IjQuMTkiIHdpZHRoPSIxNC43MyIgaGVpZ2h0PSIxMi43NiIgbWFza1VuaXRzPSJ1c2VyU3BhY2VPblVzZSI+JiN4YTsJCQk8Y2lyY2xlIGN4PSIxMiIgY3k9IjEyLjIzIiByPSIzLjU4IiBmaWx0ZXI9InVybCgjQSkiLz4mI3hhOwkJPC9tYXNrPiYjeGE7CTwvZGVmcz4mI3hhOwk8ZyBjbGFzcz0ic3QwIj4mI3hhOwkJPGNpcmNsZSBjeD0iMTYuMTMiIGN5PSI2LjIxIiByPSIxLjcyIi8+JiN4YTsJCTxjaXJjbGUgY3g9IjIuMTkiIGN5PSI2LjIxIiByPSIxLjcyIi8+JiN4YTsJCTxjaXJjbGUgY3g9IjkuMTYiIGN5PSIxOC4yOCIgcj0iMS43MiIvPiYjeGE7CTwvZz4mI3hhOwk8ZyBtYXNrPSJ1cmwoI0IpIiB0cmFuc2Zvcm09InRyYW5zbGF0ZSgtMi44NCAtMikiPiYjeGE7CQk8cGF0aCB0cmFuc2Zvcm09Im1hdHJpeCguNSAtLjg3IC44NyAuNSAtNC41OSAyMC41MykiIGQ9Ik0xNC42OSAxMC4yMmgxLjU5djguMDRoLTEuNTl6IiBjbGFzcz0ic3QxIi8+JiN4YTsJCTxwYXRoIHRyYW5zZm9ybT0icm90YXRlKDMzMCA4LjUyMyAxNC4yNDQpIiBkPSJNNC40OSAxMy40NWg4LjA0djEuNTlINC40OXoiIGNsYXNzPSJzdDEiLz4mI3hhOwkJPHBhdGggZD0iTTExLjIgNC4xOWgxLjU5djguMDRIMTEuMnoiIGNsYXNzPSJzdDEiLz4mI3hhOwk8L2c+JiN4YTsJPGcgY2xhc3M9InN0MiI+JiN4YTsJCTxjaXJjbGUgY3g9IjkuMTYiIGN5PSIxMC4yMyIgcj0iMi43OCIvPiYjeGE7CQk8Y2lyY2xlIGN4PSIyLjE5IiBjeT0iMTQuMjUiIHI9IjIuMTkiLz4mI3hhOwkJPGNpcmNsZSBjeD0iMTYuMTMiIGN5PSIxNC4yNSIgcj0iMi4xOSIvPiYjeGE7CQk8Y2lyY2xlIGN4PSI5LjE2IiBjeT0iMi4xOSIgcj0iMi4xOSIvPiYjeGE7CTwvZz4mI3hhOzwvc3ZnPg==;" parent="c4FLbgzSVyieLMumJbFi-5" vertex="1">
          <mxGeometry width="42" height="42" relative="1" as="geometry">
            <mxPoint x="5" y="7" as="offset" />
          </mxGeometry>
        </mxCell>
        <mxCell id="c4FLbgzSVyieLMumJbFi-7" style="edgeStyle=orthogonalEdgeStyle;rounded=0;html=1;dashed=0;labelBackgroundColor=none;startArrow=none;startFill=0;startSize=4;endArrow=blockThin;endFill=1;endSize=4;strokeColor=#4284F3;strokeWidth=2;fontSize=12;exitX=1;exitY=0.5;exitDx=0;exitDy=0;entryX=0;entryY=0.5;entryDx=0;entryDy=0;" parent="c4FLbgzSVyieLMumJbFi-1" source="c4FLbgzSVyieLMumJbFi-3" target="c4FLbgzSVyieLMumJbFi-5" edge="1">
          <mxGeometry relative="1" as="geometry">
            <mxPoint x="419.83245953954867" y="139.13043478260866" as="sourcePoint" />
            <mxPoint x="454.72874401641207" y="139.09045477261367" as="targetPoint" />
          </mxGeometry>
        </mxCell>
        <mxCell id="c4FLbgzSVyieLMumJbFi-8" value="" style="strokeColor=#d79b00;shadow=1;strokeWidth=1;rounded=1;absoluteArcSize=1;arcSize=2;fillColor=#ffe6cc;" parent="c4FLbgzSVyieLMumJbFi-1" vertex="1">
          <mxGeometry x="664.6844859813083" y="73.7" width="374.9416822429906" height="123.25" as="geometry" />
        </mxCell>
        <mxCell id="c4FLbgzSVyieLMumJbFi-9" value="&lt;font color=&quot;#000000&quot;&gt;Dataflow Job&lt;/font&gt;&lt;br&gt;Dataflow&lt;hr&gt;&lt;div&gt;Taxi Data Processing&lt;/div&gt;&lt;div&gt;Service Account:&amp;nbsp;&lt;/div&gt;&lt;div&gt;dataflow@schwarzshuttle.iam.gserviceaccount.com.&quot;&lt;/div&gt;" style="sketch=0;dashed=0;connectable=0;html=1;part=1;labelPosition=right;verticalLabelPosition=middle;align=left;verticalAlign=top;spacingLeft=5;fontColor=#999999;fontSize=12;spacingTop=-8;shape=image;image=data:image/svg+xml,PHN2ZyB4bWxucz0iaHR0cDovL3d3dy53My5vcmcvMjAwMC9zdmciIHhtbG5zOnY9Imh0dHBzOi8vdmVjdGEuaW8vbmFubyIgd2lkdGg9IjE0LjUxOTk5OTUwNDA4OTM1NSIgaGVpZ2h0PSIyMCIgdmlld0JveD0iMCAwIDE0LjUxOTk5OTUwNDA4OTM1NSAyMCI+JiN4YTsJPHN0eWxlIHR5cGU9InRleHQvY3NzIj4mI3hhOwkuc3Qwe2ZpbGwtcnVsZTpldmVub2RkfSYjeGE7CS5zdDF7ZmlsbDojNjY5ZGY2O30mI3hhOwkuc3Qye2ZpbGw6I2FlY2JmYTt9JiN4YTsJLnN0M3tmaWxsOiM0Mjg1ZjQ7fSYjeGE7CTwvc3R5bGU+JiN4YTsJPGcgY2xhc3M9InN0MCI+JiN4YTsJCTxwYXRoIGNsYXNzPSJzdDEiIGQ9Ik03LjM3IDIuMDNsLTEuNzIuOTYgMS41MiAxLjUtLjAyIDEuNzMgMS4wMi4wMS4wMi0xLjczIDQuMjQgMi41Ni0uMDEgMS4wNyAxLjc3LjAzVjYuMTFMOS4wNSAzLjA0bC0uMjctLjk0eiIvPiYjeGE7CQk8cGF0aCBjbGFzcz0ic3QyIiBkPSJNNy4zNiAyLjAzbC0xLjQyLjM1LS4yOS42MUwuMzkgNS45Mi4zNiA3Ljk3IDIuMTQgOGwuMDItMS4wNyA0LjMxLTIuNDUtLjAyIDEuNzMuODYuMDEuMDYtNC4xOXoiLz4mI3hhOwkJPGcgY2xhc3M9InN0MSI+JiN4YTsJCQk8cGF0aCBkPSJNNy4zNiAyLjAzTDMuOTUgMCAyLjIxLjk1bDMuNDQgMi4wNCAxLjcyLS45NnptLjcxIDExLjc2bC0xLjcyLS4wMi0uMDIgMS43Mi44MiAyLjQ4IDEuNDItLjEyLjI5LS44NSA1LjI3LTIuOTMuMDMtMi4wOS0xLjc5LS4wMi0uMDIgMS4xLTQuMyAyLjQ1eiIvPiYjeGE7CQkJPHBhdGggZD0iTTcuMTUgMTcuOTdsLTMuNDYgMS45NGgtLjA1bC0xLjY2LS45OSAzLjQ5LTEuOTYgMS42OCAxLjAxeiIvPiYjeGE7CQk8L2c+JiN4YTsJCTxwYXRoIGNsYXNzPSJzdDMiIGQ9Ik0xMC44OC4wOWgtLjA1TDcuMzcgMi4wM2wxLjY4IDEuMDEgMy40OS0xLjk2ek0xMC42MiAyMGgtLjA1bC0zLjQyLTIuMDNoMCAwIDBsMS43Mi0uOTYgMy40NCAyLjA0eiIvPiYjeGE7CQk8cGF0aCBjbGFzcz0ic3QyIiBkPSJNLjMzIDEzLjg5di0yaDEuNzZsLS4wMSAxLjA0IDQuMjUgMi41Ni4wMi0xLjcyLjg2LjAxLS4wNiA0LjE4LTEuNjgtMXoiLz4mI3hhOwk8L2c+JiN4YTsJPGNpcmNsZSBjbGFzcz0ic3QyIiBjeD0iMTMuMzgiIGN5PSIxMC4wNCIgcj0iMS4xNCIvPiYjeGE7CTxjaXJjbGUgY2xhc3M9InN0MiIgY3g9IjEuMTQiIGN5PSI5Ljg4IiByPSIxLjE0Ii8+JiN4YTsJPGNpcmNsZSBjbGFzcz0ic3QyIiBjeD0iNy4zMiIgY3k9IjcuOTkiIHI9IjEuMTQiLz4mI3hhOwk8Y2lyY2xlIGNsYXNzPSJzdDIiIGN4PSI3LjIzIiBjeT0iMTIiIHI9IjEuMTQiLz4mI3hhOzwvc3ZnPg==;" parent="c4FLbgzSVyieLMumJbFi-8" vertex="1">
          <mxGeometry width="42" height="42" relative="1" as="geometry">
            <mxPoint x="5" y="7" as="offset" />
          </mxGeometry>
        </mxCell>
        <mxCell id="c4FLbgzSVyieLMumJbFi-10" style="edgeStyle=orthogonalEdgeStyle;rounded=0;html=1;dashed=0;labelBackgroundColor=none;startArrow=none;startFill=0;startSize=4;endArrow=blockThin;endFill=1;endSize=4;strokeColor=#4284F3;strokeWidth=2;fontSize=12;entryX=0;entryY=0.5;entryDx=0;entryDy=0;" parent="c4FLbgzSVyieLMumJbFi-1" target="c4FLbgzSVyieLMumJbFi-8" edge="1">
          <mxGeometry relative="1" as="geometry">
            <mxPoint x="565.233644859813" y="140" as="sourcePoint" />
            <mxPoint x="508.3656257123318" y="127.76811594202897" as="targetPoint" />
            <Array as="points">
              <mxPoint x="566.2429906542055" y="140" />
              <mxPoint x="566.2429906542055" y="135" />
            </Array>
          </mxGeometry>
        </mxCell>
        <mxCell id="c4FLbgzSVyieLMumJbFi-11" value="Subscribes" style="edgeLabel;html=1;align=center;verticalAlign=middle;resizable=0;points=[];" parent="c4FLbgzSVyieLMumJbFi-10" vertex="1" connectable="0">
          <mxGeometry x="0.0179" relative="1" as="geometry">
            <mxPoint x="-4" y="-10" as="offset" />
          </mxGeometry>
        </mxCell>
        <mxCell id="c4FLbgzSVyieLMumJbFi-12" value="" style="strokeColor=#9673a6;shadow=1;strokeWidth=1;rounded=1;absoluteArcSize=1;arcSize=2;fillColor=#e1d5e7;" parent="c4FLbgzSVyieLMumJbFi-1" vertex="1">
          <mxGeometry x="522.7199999999999" y="366.92" width="516.906168224299" height="133.08" as="geometry" />
        </mxCell>
        <mxCell id="c4FLbgzSVyieLMumJbFi-13" value="&lt;font color=&quot;#000000&quot;&gt;Taxi Dataset&lt;/font&gt;&lt;br&gt;BigQuery&lt;hr&gt;&lt;font style=&quot;font-size: 11px&quot;&gt;taxi_dataset&lt;/font&gt;&lt;div&gt;&lt;font style=&quot;font-size: 11px&quot;&gt;Table: trips&lt;/font&gt;&lt;/div&gt;&lt;div&gt;&lt;font style=&quot;font-size: 11px&quot;&gt;CMEK:&amp;nbsp;&lt;/font&gt;&lt;/div&gt;&lt;div&gt;&lt;span style=&quot;background-color: transparent; color: light-dark(rgb(153, 153, 153), rgb(106, 106, 106));&quot;&gt;projects/schwarzshuttle/locations/global/keyRings/taxi-keyring/cryptoKeys/taxi-key.&lt;/span&gt;&lt;/div&gt;" style="sketch=0;dashed=0;connectable=0;html=1;part=1;labelPosition=right;verticalLabelPosition=middle;align=left;verticalAlign=top;spacingLeft=5;fontColor=#999999;fontSize=12;spacingTop=-8;shape=image;image=data:image/svg+xml,PHN2ZyB4bWxucz0iaHR0cDovL3d3dy53My5vcmcvMjAwMC9zdmciIHhtbG5zOnY9Imh0dHBzOi8vdmVjdGEuaW8vbmFubyIgd2lkdGg9IjIwLjAwMTA0NTIyNzA1MDc4IiBoZWlnaHQ9IjIwLjAwMTA0NTIyNzA1MDc4IiBmaWxsLXJ1bGU9ImV2ZW5vZGQiIHZpZXdCb3g9IjAgMCAyMC4wMDEwNDUyMjcwNTA3OCAyMC4wMDEwNDUyMjcwNTA3OCI+JiN4YTsJPHN0eWxlIHR5cGU9InRleHQvY3NzIj4mI3hhOwkuc3Qwe2ZpbGw6I2FlY2JmYTt9JiN4YTsJLnN0MXtmaWxsOiM2NjlkZjY7fSYjeGE7CS5zdDJ7ZmlsbDojNDI4NWY0O30mI3hhOwk8L3N0eWxlPiYjeGE7CTxwYXRoIGNsYXNzPSJzdDAiIGQ9Ik00LjczIDguODN2Mi42M2E0LjkxIDQuOTEgMCAwIDAgMS43MSAxLjc0VjguODN6Ii8+JiN4YTsJPHBhdGggY2xhc3M9InN0MSIgZD0iTTcuODkgNi40MXY3LjUzQTcuNjIgNy42MiAwIDAgMCA5IDE0YTggOCAwIDAgMCAxIDBWNi40MXoiLz4mI3hhOwk8cGF0aCBjbGFzcz0ic3QwIiBkPSJNMTEuNjQgOS44NnYzLjI5YTUgNSAwIDAgMCAxLjctMS44MlY5Ljg2eiIvPiYjeGE7CTxwYXRoIGNsYXNzPSJzdDIiIGQ9Ik0xNS43NCAxNC4zMmwtMS40MiAxLjQyYS40Mi40MiAwIDAgMCAwIC42bDMuNTQgMy41NGEuNDIuNDIgMCAwIDAgLjU5IDBsMS40My0xLjQzYS40Mi40MiAwIDAgMCAwLS41OWwtMy41NC0zLjU0YS40Mi40MiAwIDAgMC0uNiAwIi8+JiN4YTsJPHBhdGggY2xhc3M9InN0MSIgZD0iTTkgMGE5IDkgMCAxIDAgMCAxOEE5IDkgMCAxIDAgOSAwbTAgMTUuNjlhNi42OCA2LjY4IDAgMCAxIC4wMDctMTMuMzYgNi42OCA2LjY4IDAgMCAxIDQuNzI3IDExLjQwM0E2LjY4IDYuNjggMCAwIDEgOSAxNS42OSIvPiYjeGE7PC9zdmc+;" parent="c4FLbgzSVyieLMumJbFi-12" vertex="1">
          <mxGeometry width="42" height="42" relative="1" as="geometry">
            <mxPoint x="5" y="7" as="offset" />
          </mxGeometry>
        </mxCell>
        <mxCell id="c4FLbgzSVyieLMumJbFi-14" value="" style="strokeColor=#6c8ebf;shadow=1;strokeWidth=1;rounded=1;absoluteArcSize=1;arcSize=2;fillColor=#dae8fc;" parent="c4FLbgzSVyieLMumJbFi-1" vertex="1">
          <mxGeometry x="51.69869158878504" y="243.48" width="251.10504672897193" height="76.52" as="geometry" />
        </mxCell>
        <mxCell id="c4FLbgzSVyieLMumJbFi-15" value="&lt;font color=&quot;#000000&quot;&gt;Subscription&lt;/font&gt;&lt;br&gt;Cloud Sub&lt;hr&gt;&lt;font style=&quot;font-size: 11px&quot;&gt;Subscription Name: t&lt;/font&gt;&lt;span style=&quot;font-size: 11px; background-color: transparent; color: light-dark(rgb(153, 153, 153), rgb(106, 106, 106));&quot;&gt;axi-response-sub&lt;/span&gt;" style="sketch=0;dashed=0;connectable=0;html=1;part=1;labelPosition=right;verticalLabelPosition=middle;align=left;verticalAlign=top;spacingLeft=5;fontColor=#999999;fontSize=12;spacingTop=-8;shape=image;image=data:image/svg+xml,PHN2ZyB4bWxucz0iaHR0cDovL3d3dy53My5vcmcvMjAwMC9zdmciIHhtbG5zOnY9Imh0dHBzOi8vdmVjdGEuaW8vbmFubyIgd2lkdGg9IjE4LjMxOTk5OTY5NDgyNDIyIiBoZWlnaHQ9IjIwLjAwMDAwMTkwNzM0ODYzMyIgdmlld0JveD0iMCAwIDE4LjMxOTk5OTY5NDgyNDIyIDIwLjAwMDAwMTkwNzM0ODYzMyI+JiN4YTsJPHN0eWxlIHR5cGU9InRleHQvY3NzIj4mI3hhOwkuc3Qwe2ZpbGw6IzY2OWRmNjt9JiN4YTsJLnN0MXtmaWxsOiM0Mjg1ZjQ7fSYjeGE7CS5zdDJ7ZmlsbDojYWVjYmZhO30mI3hhOwk8L3N0eWxlPiYjeGE7CTxkZWZzPiYjeGE7CQk8ZmlsdGVyIGlkPSJBIiB4PSI0LjY0IiB5PSI0LjE5IiB3aWR0aD0iMTQuNzMiIGhlaWdodD0iMTIuNzYiIGZpbHRlclVuaXRzPSJ1c2VyU3BhY2VPblVzZSIgY29sb3ItaW50ZXJwb2xhdGlvbi1maWx0ZXJzPSJzUkdCIj4mI3hhOwkJCTxmZUZsb29kIGZsb29kLWNvbG9yPSIjZmZmIi8+JiN4YTsJCQk8ZmVCbGVuZCBpbj0iU291cmNlR3JhcGhpYyIvPiYjeGE7CQk8L2ZpbHRlcj4mI3hhOwkJPG1hc2sgaWQ9IkIiIHg9IjQuNjQiIHk9IjQuMTkiIHdpZHRoPSIxNC43MyIgaGVpZ2h0PSIxMi43NiIgbWFza1VuaXRzPSJ1c2VyU3BhY2VPblVzZSI+JiN4YTsJCQk8Y2lyY2xlIGN4PSIxMiIgY3k9IjEyLjIzIiByPSIzLjU4IiBmaWx0ZXI9InVybCgjQSkiLz4mI3hhOwkJPC9tYXNrPiYjeGE7CTwvZGVmcz4mI3hhOwk8ZyBjbGFzcz0ic3QwIj4mI3hhOwkJPGNpcmNsZSBjeD0iMTYuMTMiIGN5PSI2LjIxIiByPSIxLjcyIi8+JiN4YTsJCTxjaXJjbGUgY3g9IjIuMTkiIGN5PSI2LjIxIiByPSIxLjcyIi8+JiN4YTsJCTxjaXJjbGUgY3g9IjkuMTYiIGN5PSIxOC4yOCIgcj0iMS43MiIvPiYjeGE7CTwvZz4mI3hhOwk8ZyBtYXNrPSJ1cmwoI0IpIiB0cmFuc2Zvcm09InRyYW5zbGF0ZSgtMi44NCAtMikiPiYjeGE7CQk8cGF0aCB0cmFuc2Zvcm09Im1hdHJpeCguNSAtLjg3IC44NyAuNSAtNC41OSAyMC41MykiIGQ9Ik0xNC42OSAxMC4yMmgxLjU5djguMDRoLTEuNTl6IiBjbGFzcz0ic3QxIi8+JiN4YTsJCTxwYXRoIHRyYW5zZm9ybT0icm90YXRlKDMzMCA4LjUyMyAxNC4yNDQpIiBkPSJNNC40OSAxMy40NWg4LjA0djEuNTlINC40OXoiIGNsYXNzPSJzdDEiLz4mI3hhOwkJPHBhdGggZD0iTTExLjIgNC4xOWgxLjU5djguMDRIMTEuMnoiIGNsYXNzPSJzdDEiLz4mI3hhOwk8L2c+JiN4YTsJPGcgY2xhc3M9InN0MiI+JiN4YTsJCTxjaXJjbGUgY3g9IjkuMTYiIGN5PSIxMC4yMyIgcj0iMi43OCIvPiYjeGE7CQk8Y2lyY2xlIGN4PSIyLjE5IiBjeT0iMTQuMjUiIHI9IjIuMTkiLz4mI3hhOwkJPGNpcmNsZSBjeD0iMTYuMTMiIGN5PSIxNC4yNSIgcj0iMi4xOSIvPiYjeGE7CQk8Y2lyY2xlIGN4PSI5LjE2IiBjeT0iMi4xOSIgcj0iMi4xOSIvPiYjeGE7CTwvZz4mI3hhOzwvc3ZnPg==;" parent="c4FLbgzSVyieLMumJbFi-14" vertex="1">
          <mxGeometry width="42" height="42" relative="1" as="geometry">
            <mxPoint x="5" y="7" as="offset" />
          </mxGeometry>
        </mxCell>
        <mxCell id="c4FLbgzSVyieLMumJbFi-16" value="" style="strokeColor=#6c8ebf;shadow=1;strokeWidth=1;rounded=1;absoluteArcSize=1;arcSize=2;fillColor=#dae8fc;" parent="c4FLbgzSVyieLMumJbFi-1" vertex="1">
          <mxGeometry x="373.4579439252336" y="243.87" width="191.77570093457942" height="76.13" as="geometry" />
        </mxCell>
        <mxCell id="c4FLbgzSVyieLMumJbFi-17" value="&lt;font color=&quot;#000000&quot;&gt;Topic&lt;/font&gt;&lt;br&gt;Cloud Pub&lt;hr&gt;&lt;font style=&quot;font-size: 11px&quot;&gt;Topic Name:&amp;nbsp;&lt;span style=&quot;background-color: transparent; color: light-dark(rgb(153, 153, 153), rgb(106, 106, 106));&quot;&gt;taxi-response&lt;/span&gt;&lt;br&gt;&lt;/font&gt;" style="sketch=0;dashed=0;connectable=0;html=1;part=1;labelPosition=right;verticalLabelPosition=middle;align=left;verticalAlign=top;spacingLeft=5;fontColor=#999999;fontSize=12;spacingTop=-8;shape=image;image=data:image/svg+xml,PHN2ZyB4bWxucz0iaHR0cDovL3d3dy53My5vcmcvMjAwMC9zdmciIHhtbG5zOnY9Imh0dHBzOi8vdmVjdGEuaW8vbmFubyIgd2lkdGg9IjE4LjMxOTk5OTY5NDgyNDIyIiBoZWlnaHQ9IjIwLjAwMDAwMTkwNzM0ODYzMyIgdmlld0JveD0iMCAwIDE4LjMxOTk5OTY5NDgyNDIyIDIwLjAwMDAwMTkwNzM0ODYzMyI+JiN4YTsJPHN0eWxlIHR5cGU9InRleHQvY3NzIj4mI3hhOwkuc3Qwe2ZpbGw6IzY2OWRmNjt9JiN4YTsJLnN0MXtmaWxsOiM0Mjg1ZjQ7fSYjeGE7CS5zdDJ7ZmlsbDojYWVjYmZhO30mI3hhOwk8L3N0eWxlPiYjeGE7CTxkZWZzPiYjeGE7CQk8ZmlsdGVyIGlkPSJBIiB4PSI0LjY0IiB5PSI0LjE5IiB3aWR0aD0iMTQuNzMiIGhlaWdodD0iMTIuNzYiIGZpbHRlclVuaXRzPSJ1c2VyU3BhY2VPblVzZSIgY29sb3ItaW50ZXJwb2xhdGlvbi1maWx0ZXJzPSJzUkdCIj4mI3hhOwkJCTxmZUZsb29kIGZsb29kLWNvbG9yPSIjZmZmIi8+JiN4YTsJCQk8ZmVCbGVuZCBpbj0iU291cmNlR3JhcGhpYyIvPiYjeGE7CQk8L2ZpbHRlcj4mI3hhOwkJPG1hc2sgaWQ9IkIiIHg9IjQuNjQiIHk9IjQuMTkiIHdpZHRoPSIxNC43MyIgaGVpZ2h0PSIxMi43NiIgbWFza1VuaXRzPSJ1c2VyU3BhY2VPblVzZSI+JiN4YTsJCQk8Y2lyY2xlIGN4PSIxMiIgY3k9IjEyLjIzIiByPSIzLjU4IiBmaWx0ZXI9InVybCgjQSkiLz4mI3hhOwkJPC9tYXNrPiYjeGE7CTwvZGVmcz4mI3hhOwk8ZyBjbGFzcz0ic3QwIj4mI3hhOwkJPGNpcmNsZSBjeD0iMTYuMTMiIGN5PSI2LjIxIiByPSIxLjcyIi8+JiN4YTsJCTxjaXJjbGUgY3g9IjIuMTkiIGN5PSI2LjIxIiByPSIxLjcyIi8+JiN4YTsJCTxjaXJjbGUgY3g9IjkuMTYiIGN5PSIxOC4yOCIgcj0iMS43MiIvPiYjeGE7CTwvZz4mI3hhOwk8ZyBtYXNrPSJ1cmwoI0IpIiB0cmFuc2Zvcm09InRyYW5zbGF0ZSgtMi44NCAtMikiPiYjeGE7CQk8cGF0aCB0cmFuc2Zvcm09Im1hdHJpeCguNSAtLjg3IC44NyAuNSAtNC41OSAyMC41MykiIGQ9Ik0xNC42OSAxMC4yMmgxLjU5djguMDRoLTEuNTl6IiBjbGFzcz0ic3QxIi8+JiN4YTsJCTxwYXRoIHRyYW5zZm9ybT0icm90YXRlKDMzMCA4LjUyMyAxNC4yNDQpIiBkPSJNNC40OSAxMy40NWg4LjA0djEuNTlINC40OXoiIGNsYXNzPSJzdDEiLz4mI3hhOwkJPHBhdGggZD0iTTExLjIgNC4xOWgxLjU5djguMDRIMTEuMnoiIGNsYXNzPSJzdDEiLz4mI3hhOwk8L2c+JiN4YTsJPGcgY2xhc3M9InN0MiI+JiN4YTsJCTxjaXJjbGUgY3g9IjkuMTYiIGN5PSIxMC4yMyIgcj0iMi43OCIvPiYjeGE7CQk8Y2lyY2xlIGN4PSIyLjE5IiBjeT0iMTQuMjUiIHI9IjIuMTkiLz4mI3hhOwkJPGNpcmNsZSBjeD0iMTYuMTMiIGN5PSIxNC4yNSIgcj0iMi4xOSIvPiYjeGE7CQk8Y2lyY2xlIGN4PSI5LjE2IiBjeT0iMi4xOSIgcj0iMi4xOSIvPiYjeGE7CTwvZz4mI3hhOzwvc3ZnPg==;" parent="c4FLbgzSVyieLMumJbFi-16" vertex="1">
          <mxGeometry width="42" height="42" relative="1" as="geometry">
            <mxPoint x="5" y="7" as="offset" />
          </mxGeometry>
        </mxCell>
        <mxCell id="c4FLbgzSVyieLMumJbFi-18" style="edgeStyle=orthogonalEdgeStyle;rounded=0;html=1;dashed=0;labelBackgroundColor=none;startArrow=none;startFill=0;startSize=4;endArrow=blockThin;endFill=1;endSize=4;strokeColor=#4284F3;strokeWidth=2;fontSize=12;exitX=0.25;exitY=1;exitDx=0;exitDy=0;entryX=1;entryY=0.5;entryDx=0;entryDy=0;" parent="c4FLbgzSVyieLMumJbFi-1" source="c4FLbgzSVyieLMumJbFi-8" target="c4FLbgzSVyieLMumJbFi-16" edge="1">
          <mxGeometry relative="1" as="geometry">
            <mxPoint x="516.9819922498291" y="278.2608695652173" as="sourcePoint" />
            <mxPoint x="575.1424663779347" y="278.2608695652173" as="targetPoint" />
          </mxGeometry>
        </mxCell>
        <mxCell id="c4FLbgzSVyieLMumJbFi-19" value="Publishes" style="edgeLabel;html=1;align=center;verticalAlign=middle;resizable=0;points=[];" parent="c4FLbgzSVyieLMumJbFi-18" vertex="1" connectable="0">
          <mxGeometry x="0.0179" relative="1" as="geometry">
            <mxPoint x="-4" y="-10" as="offset" />
          </mxGeometry>
        </mxCell>
        <mxCell id="c4FLbgzSVyieLMumJbFi-20" style="edgeStyle=orthogonalEdgeStyle;rounded=0;html=1;dashed=0;labelBackgroundColor=none;startArrow=none;startFill=0;startSize=4;endArrow=blockThin;endFill=1;endSize=4;strokeColor=#4284F3;strokeWidth=2;fontSize=12;exitX=0;exitY=0.5;exitDx=0;exitDy=0;entryX=1;entryY=0.5;entryDx=0;entryDy=0;" parent="c4FLbgzSVyieLMumJbFi-1" source="c4FLbgzSVyieLMumJbFi-16" target="c4FLbgzSVyieLMumJbFi-14" edge="1">
          <mxGeometry relative="1" as="geometry">
            <mxPoint x="168.01914748119444" y="139.13043478260866" as="sourcePoint" />
            <mxPoint x="226.17962160930017" y="140.28985507246375" as="targetPoint" />
          </mxGeometry>
        </mxCell>
        <mxCell id="c4FLbgzSVyieLMumJbFi-21" value="&#xa;&#xa;KMS Keyring: taxi-keyring&#xa;Key: taxi-key" style="strokeColor=#82b366;shadow=1;strokeWidth=1;rounded=1;absoluteArcSize=1;arcSize=2;fillColor=#d5e8d4;spacingBottom=-2;align=left;" parent="c4FLbgzSVyieLMumJbFi-1" vertex="1">
          <mxGeometry x="238.06429906542056" y="380" width="175.5252336448598" height="140" as="geometry" />
        </mxCell>
        <mxCell id="c4FLbgzSVyieLMumJbFi-22" value="&lt;font&gt;Key Management&lt;br&gt;Service&lt;/font&gt;" style="editableCssRules=.*;html=1;fontColor=#999999;shape=image;verticalLabelPosition=middle;verticalAlign=middle;labelPosition=right;align=left;spacingLeft=20;part=1;points=[];imageAspect=0;image=data:image/svg+xml,PHN2ZyB4bWxucz0iaHR0cDovL3d3dy53My5vcmcvMjAwMC9zdmciIHhtbG5zOnY9Imh0dHBzOi8vdmVjdGEuaW8vbmFubyIgd2lkdGg9IjMxMC43NzU2MDY1NDM4NjAyNSIgaGVpZ2h0PSIzNzcuOTUzMDI4ODM1NTI1NDYiIHZpZXdCb3g9Ii0wLjE0MDAwMDAwMDU5NjA0NjQ1IC0wLjQ2NzAwMDAwNzYyOTM5NDUzIDgyLjIyNTk5NzkyNDgwNDY5IDEwMC4wMDAwMDc2MjkzOTQ1MyI+JiN4YTs8c3R5bGUgdHlwZT0idGV4dC9jc3MiPiYjeGE7CS5zdDB7ZmlsbDojNDI4NWY0O30mI3hhOwkuc3Qxe2ZpbGw6IzY2OWRmNjt9JiN4YTsJLnN0MntmaWxsOiNmZmY7fSYjeGE7PC9zdHlsZT4mI3hhOwk8cGF0aCBjbGFzcz0ic3QwIiBkPSJNNDAuOTczLS40NjdsNDEuMTEzIDE3LjQ5M3YyOS42NTRjMCAyNy40MTgtMjQuNjA4IDUwLjgzNi00MS4xMTMgNTIuODUzeiIvPiYjeGE7CTxwYXRoIGNsYXNzPSJzdDEiIGQ9Ik00MC45NzMtLjQ2N0wtLjE0IDE3LjAyNXYyOS42NTRjMCAyNy40MTggMjQuNjA4IDUwLjgzNiA0MS4xMTMgNTIuODUzeiIvPiYjeGE7CTxwYXRoIGNsYXNzPSJzdDIiIGQ9Ik00MS4yNTMgMTYuNjA1Yy05LjU4NCAwLTE3LjQ0NSA3Ljg2Mi0xNy40NDUgMTcuNDQ1IDAgOC4wODQgNS41OTQgMTQuOTQyIDEzLjA5NiAxNi44OTF2OS40ODhoLTkuODY5djguNzAxaDkuODY5djUuMzc3aC02LjMxNXY4LjcwMWg2LjMxNXYyLjE5N2g4LjcwMVY1MC45NDFDNTMuMTA2IDQ4Ljk5MiA1OC43IDQyLjEzNCA1OC43IDM0LjA1YzAtOS41ODQtNy44NjMtMTcuNDQ1LTE3LjQ0Ny0xNy40NDV6bTAgOC42OTlBOC42OCA4LjY4IDAgMCAxIDUwIDM0LjA1YTguNjggOC42OCAwIDAgMS04Ljc0OCA4Ljc0NiA4LjY4IDguNjggMCAwIDEtOC43NDYtOC43NDYgOC42OCA4LjY4IDAgMCAxIDguNzQ2LTguNzQ2eiIvPiYjeGE7PC9zdmc+;" parent="c4FLbgzSVyieLMumJbFi-21" vertex="1">
          <mxGeometry width="24" height="30" relative="1" as="geometry">
            <mxPoint x="18" y="15" as="offset" />
          </mxGeometry>
        </mxCell>
        <mxCell id="c4FLbgzSVyieLMumJbFi-23" style="edgeStyle=orthogonalEdgeStyle;rounded=0;html=1;dashed=0;labelBackgroundColor=none;startArrow=none;startFill=0;startSize=4;endArrow=blockThin;endFill=1;endSize=4;strokeColor=#4284F3;strokeWidth=2;fontSize=12;entryX=0;entryY=0.5;entryDx=0;entryDy=0;exitX=0.984;exitY=0.381;exitDx=0;exitDy=0;exitPerimeter=0;" parent="c4FLbgzSVyieLMumJbFi-1" source="c4FLbgzSVyieLMumJbFi-21" target="c4FLbgzSVyieLMumJbFi-12" edge="1">
          <mxGeometry relative="1" as="geometry">
            <mxPoint x="423.92523364485976" y="433" as="sourcePoint" />
            <mxPoint x="777.4116708456804" y="301.44927536231876" as="targetPoint" />
          </mxGeometry>
        </mxCell>
        <mxCell id="c4FLbgzSVyieLMumJbFi-24" value="Encrypts" style="edgeLabel;html=1;align=center;verticalAlign=middle;resizable=0;points=[];" parent="c4FLbgzSVyieLMumJbFi-23" vertex="1" connectable="0">
          <mxGeometry x="-0.1625" y="-1" relative="1" as="geometry">
            <mxPoint y="-12" as="offset" />
          </mxGeometry>
        </mxCell>
        <mxCell id="c4FLbgzSVyieLMumJbFi-25" value="Roles: roles/bigquery.dataEditor&#xa;Service Account: &#xa;dataflow@schwarzshuttle.iam.gserviceaccount.com&#xa;&#xa;Note: Grants access to Dataflow and BigQuery" style="strokeColor=#dddddd;shadow=1;strokeWidth=1;rounded=1;absoluteArcSize=1;arcSize=2;align=left;verticalAlign=middle;spacingBottom=-1;fontFamily=Helvetica;fontSize=12;fontColor=default;fillColor=#d5e8d4;" parent="c4FLbgzSVyieLMumJbFi-1" vertex="1">
          <mxGeometry x="685.6082242990653" y="530" width="333.0841121495327" height="261.11" as="geometry" />
        </mxCell>
        <mxCell id="c4FLbgzSVyieLMumJbFi-26" value="&lt;font color=&quot;#000000&quot;&gt;IAM Policy Binding&lt;/font&gt;&lt;br&gt;Cloud IAM" style="editableCssRules=.*;html=1;fontColor=#999999;shape=image;verticalLabelPosition=middle;verticalAlign=middle;labelPosition=right;align=left;spacingLeft=20;part=1;points=[];imageAspect=0;image=data:image/svg+xml,PHN2ZyB4bWxucz0iaHR0cDovL3d3dy53My5vcmcvMjAwMC9zdmciIHhtbG5zOnY9Imh0dHBzOi8vdmVjdGEuaW8vbmFubyIgd2lkdGg9IjE2LjQyMDAwMDA3NjI5Mzk0NSIgaGVpZ2h0PSIyMC4wNDk5OTkyMzcwNjA1NDciIGZpbGwtcnVsZT0iZXZlbm9kZCIgdmlld0JveD0iMCAwIDE2LjQyMDAwMDA3NjI5Mzk0NSAyMC4wNDk5OTkyMzcwNjA1NDciPiYjeGE7CTxzdHlsZSB0eXBlPSJ0ZXh0L2NzcyI+JiN4YTsJLnN0MHtmaWxsOiM0Mjg1ZjQ7fSYjeGE7CS5zdDF7ZmlsbDojNjY5ZGY2O30mI3hhOwk8L3N0eWxlPiYjeGE7CTxwYXRoIGNsYXNzPSJzdDEiIGQ9Ik04LjIxIDBMMCAzLjQydjUuNjNjMCA1LjA2IDMuNSA5LjggOC4yMSAxMSA0LjcxLTEuMTUgOC4yMS01Ljg5IDguMjEtMTAuOTVWMy40MnptMCAzLjc5YTIuNjMgMi42MyAwIDAgMSAxLjAwNSA1LjA2QTIuNjMgMi42MyAwIDAgMSA2LjM1IDQuNTZhMi42MyAyLjYzIDAgMCAxIDEuODYtLjc3em00LjExIDExLjE1YTguNjQgOC42NCAwIDAgMS00LjExIDIuOTMgOC42NCA4LjY0IDAgMCAxLTQuMTEtMi45M3YtMi4yNWMwLTEuNjcgMi43NC0yLjUyIDQuMTEtMi41MnM0LjExLjg1IDQuMTEgMi41MnoiLz4mI3hhOwk8cGF0aCBjbGFzcz0ic3QwIiBkPSJNOC4yMSAwdjMuNzlhMi42MyAyLjYzIDAgMSAxIDAgNS4yNnYxLjEyYzEuMzcgMCA0LjExLjg1IDQuMTEgMi41MnYyLjI1YTguNjQgOC42NCAwIDAgMS00LjExIDIuOTNWMjBjNC43MS0xLjE1IDguMjEtNS44OSA4LjIxLTEwLjk1VjMuNDJ6Ii8+JiN4YTs8L3N2Zz4=;rounded=1;shadow=1;strokeColor=#82b366;strokeWidth=1;spacingBottom=-1;arcSize=2;fontFamily=Helvetica;fontSize=12;fillColor=#d5e8d4;" parent="c4FLbgzSVyieLMumJbFi-25" vertex="1">
          <mxGeometry width="24" height="30" relative="1" as="geometry">
            <mxPoint x="18" y="15" as="offset" />
          </mxGeometry>
        </mxCell>
        <mxCell id="c4FLbgzSVyieLMumJbFi-27" style="edgeStyle=orthogonalEdgeStyle;rounded=0;html=1;dashed=0;labelBackgroundColor=none;startArrow=none;startFill=0;startSize=4;endArrow=blockThin;endFill=1;endSize=4;strokeColor=#4284F3;strokeWidth=2;fontSize=12;exitX=0.75;exitY=1;exitDx=0;exitDy=0;entryX=0.818;entryY=0.029;entryDx=0;entryDy=0;entryPerimeter=0;" parent="c4FLbgzSVyieLMumJbFi-1" source="c4FLbgzSVyieLMumJbFi-8" target="c4FLbgzSVyieLMumJbFi-12" edge="1">
          <mxGeometry relative="1" as="geometry">
            <mxPoint x="1050.7289719626167" y="260" as="sourcePoint" />
            <mxPoint x="706.5420560747663" y="357" as="targetPoint" />
          </mxGeometry>
        </mxCell>
        <mxCell id="c4FLbgzSVyieLMumJbFi-28" value="Writes" style="edgeLabel;html=1;align=center;verticalAlign=middle;resizable=0;points=[];" parent="c4FLbgzSVyieLMumJbFi-27" vertex="1" connectable="0">
          <mxGeometry x="0.0179" relative="1" as="geometry">
            <mxPoint x="-4" y="-10" as="offset" />
          </mxGeometry>
        </mxCell>
        <mxCell id="c4FLbgzSVyieLMumJbFi-29" value="SchwarzShuttle&lt;br&gt;&lt;font style=&quot;font-size: 10px&quot;&gt;Application&lt;/font&gt;" style="rounded=1;absoluteArcSize=1;arcSize=2;html=1;strokeColor=#666666;shadow=0;dashed=0;fontSize=12;fontColor=#333333;align=left;verticalAlign=top;spacing=10;spacingTop=-4;fillColor=#f5f5f5;" parent="1" vertex="1">
          <mxGeometry x="-340" y="290" width="180" height="180" as="geometry" />
        </mxCell>
        <mxCell id="c4FLbgzSVyieLMumJbFi-30" value="" style="strokeColor=#dddddd;fillColor=#ffffff;shadow=1;strokeWidth=1;rounded=1;absoluteArcSize=1;arcSize=2;labelPosition=center;verticalLabelPosition=middle;align=center;verticalAlign=bottom;spacingLeft=0;fontColor=#999999;fontSize=12;whiteSpace=wrap;spacingBottom=2;html=1;" parent="1" vertex="1">
          <mxGeometry x="-302.5" y="340" width="105" height="105" as="geometry" />
        </mxCell>
        <mxCell id="c4FLbgzSVyieLMumJbFi-31" value="" style="dashed=0;connectable=0;html=1;fillColor=#757575;strokeColor=none;shape=mxgraph.gcp2.application;part=1;" parent="c4FLbgzSVyieLMumJbFi-30" vertex="1">
          <mxGeometry x="0.5" width="90" height="70" relative="1" as="geometry">
            <mxPoint x="-45.5" y="15" as="offset" />
          </mxGeometry>
        </mxCell>
        <mxCell id="c4FLbgzSVyieLMumJbFi-32" value="Report &amp;amp; Share&lt;br&gt;&lt;font style=&quot;font-size: 10px&quot;&gt;Business Analysis&lt;/font&gt;&lt;br&gt;" style="rounded=1;absoluteArcSize=1;arcSize=2;html=1;strokeColor=#666666;shadow=0;dashed=0;fontSize=12;fontColor=#333333;align=left;verticalAlign=top;spacing=10;spacingTop=-4;fillColor=#f5f5f5;" parent="1" vertex="1">
          <mxGeometry x="1020" y="570" width="220" height="180" as="geometry" />
        </mxCell>
        <mxCell id="c4FLbgzSVyieLMumJbFi-33" value="" style="strokeColor=#dddddd;fillColor=#ffffff;shadow=1;strokeWidth=1;rounded=1;absoluteArcSize=1;arcSize=2;labelPosition=center;verticalLabelPosition=middle;align=center;verticalAlign=bottom;spacingLeft=0;fontColor=#999999;fontSize=12;whiteSpace=wrap;spacingBottom=2;html=1;" parent="1" vertex="1">
          <mxGeometry x="1030" y="657" width="70" height="70" as="geometry" />
        </mxCell>
        <mxCell id="c4FLbgzSVyieLMumJbFi-34" value="" style="dashed=0;connectable=0;html=1;fillColor=#757575;strokeColor=none;shape=mxgraph.gcp2.report;part=1;" parent="c4FLbgzSVyieLMumJbFi-33" vertex="1">
          <mxGeometry x="0.5" width="50" height="50" relative="1" as="geometry">
            <mxPoint x="-25" y="10" as="offset" />
          </mxGeometry>
        </mxCell>
        <mxCell id="c4FLbgzSVyieLMumJbFi-35" value="" style="strokeColor=#dddddd;fillColor=#ffffff;shadow=1;strokeWidth=1;rounded=1;absoluteArcSize=1;arcSize=2;labelPosition=center;verticalLabelPosition=middle;align=center;verticalAlign=bottom;spacingLeft=0;fontColor=#999999;fontSize=12;whiteSpace=wrap;spacingBottom=2;html=1;" parent="1" vertex="1">
          <mxGeometry x="1110" y="657" width="70" height="70" as="geometry" />
        </mxCell>
        <mxCell id="c4FLbgzSVyieLMumJbFi-36" value="" style="dashed=0;connectable=0;html=1;fillColor=#757575;strokeColor=none;shape=mxgraph.gcp2.users;part=1;" parent="c4FLbgzSVyieLMumJbFi-35" vertex="1">
          <mxGeometry x="0.5" width="50" height="31.5" relative="1" as="geometry">
            <mxPoint x="-25" y="19.25" as="offset" />
          </mxGeometry>
        </mxCell>
        <mxCell id="c4FLbgzSVyieLMumJbFi-37" style="edgeStyle=orthogonalEdgeStyle;rounded=0;html=1;dashed=0;labelBackgroundColor=none;startArrow=none;startFill=0;startSize=4;endArrow=blockThin;endFill=1;endSize=4;strokeColor=#4284F3;strokeWidth=2;fontSize=12;exitX=1;exitY=0.5;exitDx=0;exitDy=0;entryX=0.005;entryY=0.463;entryDx=0;entryDy=0;entryPerimeter=0;" parent="1" source="c4FLbgzSVyieLMumJbFi-12" target="c4FLbgzSVyieLMumJbFi-32" edge="1">
          <mxGeometry relative="1" as="geometry">
            <mxPoint x="970" y="660" as="sourcePoint" />
            <mxPoint x="1039" y="660" as="targetPoint" />
            <Array as="points" />
          </mxGeometry>
        </mxCell>
        <mxCell id="c4FLbgzSVyieLMumJbFi-38" style="edgeStyle=orthogonalEdgeStyle;rounded=0;html=1;dashed=0;labelBackgroundColor=none;startArrow=none;startFill=0;startSize=4;endArrow=blockThin;endFill=1;endSize=4;strokeColor=#4284F3;strokeWidth=2;fontSize=12;exitX=1;exitY=0.25;exitDx=0;exitDy=0;entryX=0;entryY=0.5;entryDx=0;entryDy=0;" parent="1" source="c4FLbgzSVyieLMumJbFi-29" target="c4FLbgzSVyieLMumJbFi-3" edge="1">
          <mxGeometry relative="1" as="geometry">
            <mxPoint x="-140" y="351" as="sourcePoint" />
            <mxPoint x="-70" y="351" as="targetPoint" />
            <Array as="points">
              <mxPoint x="-160" y="341" />
            </Array>
          </mxGeometry>
        </mxCell>
        <mxCell id="c4FLbgzSVyieLMumJbFi-39" value="Publsihes" style="edgeLabel;html=1;align=center;verticalAlign=middle;resizable=0;points=[];rounded=1;shadow=1;strokeColor=#82b366;strokeWidth=1;spacingBottom=-1;arcSize=2;fontFamily=Helvetica;fontSize=12;fontColor=default;fillColor=#d5e8d4;" parent="c4FLbgzSVyieLMumJbFi-38" vertex="1" connectable="0">
          <mxGeometry x="-0.3617" y="4" relative="1" as="geometry">
            <mxPoint y="-7" as="offset" />
          </mxGeometry>
        </mxCell>
        <mxCell id="c4FLbgzSVyieLMumJbFi-40" style="edgeStyle=orthogonalEdgeStyle;rounded=0;html=1;dashed=0;labelBackgroundColor=none;startArrow=none;startFill=0;startSize=4;endArrow=blockThin;endFill=1;endSize=4;strokeColor=#4284F3;strokeWidth=2;fontSize=12;exitX=0.005;exitY=0.608;exitDx=0;exitDy=0;entryX=0.5;entryY=1;entryDx=0;entryDy=0;exitPerimeter=0;" parent="1" source="c4FLbgzSVyieLMumJbFi-14" target="c4FLbgzSVyieLMumJbFi-29" edge="1">
          <mxGeometry relative="1" as="geometry">
            <mxPoint x="-110" y="512" as="sourcePoint" />
            <mxPoint x="-180" y="512" as="targetPoint" />
          </mxGeometry>
        </mxCell>
        <mxCell id="c4FLbgzSVyieLMumJbFi-41" value="Subscribes" style="edgeLabel;html=1;align=center;verticalAlign=middle;resizable=0;points=[];rounded=1;shadow=1;strokeColor=#82b366;strokeWidth=1;spacingBottom=-1;arcSize=2;fontFamily=Helvetica;fontSize=12;fontColor=default;fillColor=#d5e8d4;" parent="c4FLbgzSVyieLMumJbFi-40" vertex="1" connectable="0">
          <mxGeometry x="-0.3082" y="2" relative="1" as="geometry">
            <mxPoint x="-2" y="-22" as="offset" />
          </mxGeometry>
        </mxCell>
        <mxCell id="c4FLbgzSVyieLMumJbFi-42" value="" style="shape=table;startSize=0;container=1;collapsible=0;childLayout=tableLayout;rounded=1;shadow=1;strokeWidth=1;align=center;verticalAlign=middle;spacingBottom=-1;arcSize=2;fontFamily=Helvetica;fontSize=12;" parent="1" vertex="1">
          <mxGeometry x="-780" y="520" width="650" height="741" as="geometry" />
        </mxCell>
        <mxCell id="c4FLbgzSVyieLMumJbFi-43" value="" style="shape=tableRow;horizontal=0;startSize=0;swimlaneHead=0;swimlaneBody=0;strokeColor=inherit;top=0;left=0;bottom=0;right=0;collapsible=0;dropTarget=0;fillColor=none;points=[[0,0.5],[1,0.5]];portConstraint=eastwest;rounded=1;shadow=1;strokeWidth=1;align=center;verticalAlign=middle;spacingBottom=-1;arcSize=2;fontFamily=Helvetica;fontSize=12;fontColor=default;" parent="c4FLbgzSVyieLMumJbFi-42" vertex="1">
          <mxGeometry width="650" height="61" as="geometry" />
        </mxCell>
        <mxCell id="c4FLbgzSVyieLMumJbFi-44" value="&lt;div&gt;&lt;b&gt;Component&lt;/b&gt;&lt;/div&gt;" style="shape=partialRectangle;html=1;whiteSpace=wrap;connectable=0;strokeColor=inherit;overflow=hidden;fillColor=none;top=0;left=0;bottom=0;right=0;pointerEvents=1;rounded=1;shadow=1;strokeWidth=1;align=left;verticalAlign=middle;spacingBottom=-1;arcSize=2;fontFamily=Helvetica;fontSize=12;fontColor=default;" parent="c4FLbgzSVyieLMumJbFi-43" vertex="1">
          <mxGeometry width="325" height="61" as="geometry">
            <mxRectangle width="325" height="61" as="alternateBounds" />
          </mxGeometry>
        </mxCell>
        <mxCell id="c4FLbgzSVyieLMumJbFi-45" value="&lt;div&gt;&lt;b&gt;Details&lt;/b&gt;&lt;/div&gt;" style="shape=partialRectangle;html=1;whiteSpace=wrap;connectable=0;strokeColor=inherit;overflow=hidden;fillColor=none;top=0;left=0;bottom=0;right=0;pointerEvents=1;rounded=1;shadow=1;strokeWidth=1;align=left;verticalAlign=middle;spacingBottom=-1;arcSize=2;fontFamily=Helvetica;fontSize=12;fontColor=default;" parent="c4FLbgzSVyieLMumJbFi-43" vertex="1">
          <mxGeometry x="325" width="325" height="61" as="geometry">
            <mxRectangle width="325" height="61" as="alternateBounds" />
          </mxGeometry>
        </mxCell>
        <mxCell id="c4FLbgzSVyieLMumJbFi-46" value="" style="shape=tableRow;horizontal=0;startSize=0;swimlaneHead=0;swimlaneBody=0;strokeColor=inherit;top=0;left=0;bottom=0;right=0;collapsible=0;dropTarget=0;fillColor=none;points=[[0,0.5],[1,0.5]];portConstraint=eastwest;rounded=1;shadow=1;strokeWidth=1;align=center;verticalAlign=middle;spacingBottom=-1;arcSize=2;fontFamily=Helvetica;fontSize=12;fontColor=default;" parent="c4FLbgzSVyieLMumJbFi-42" vertex="1">
          <mxGeometry y="61" width="650" height="63" as="geometry" />
        </mxCell>
        <mxCell id="c4FLbgzSVyieLMumJbFi-47" value="&lt;div&gt;SchwarzShuttle Application&lt;/div&gt;" style="shape=partialRectangle;html=1;whiteSpace=wrap;connectable=0;strokeColor=#666666;overflow=hidden;fillColor=#f5f5f5;top=0;left=0;bottom=0;right=0;pointerEvents=1;rounded=1;shadow=1;strokeWidth=1;align=left;verticalAlign=middle;spacingBottom=-1;arcSize=2;fontFamily=Helvetica;fontSize=12;fontColor=#333333;" parent="c4FLbgzSVyieLMumJbFi-46" vertex="1">
          <mxGeometry width="325" height="63" as="geometry">
            <mxRectangle width="325" height="63" as="alternateBounds" />
          </mxGeometry>
        </mxCell>
        <mxCell id="c4FLbgzSVyieLMumJbFi-48" value="&lt;div&gt;&amp;nbsp;The taxi service application that generates trip data, publishes it to the &quot;taxi_trips&quot; Pub/Sub topic, and subscribes to &quot;taxi_response_sub&quot; to receive responses like receipts or instructions.&lt;/div&gt;" style="shape=partialRectangle;html=1;whiteSpace=wrap;connectable=0;strokeColor=#666666;overflow=hidden;fillColor=#f5f5f5;top=0;left=0;bottom=0;right=0;pointerEvents=1;rounded=1;shadow=1;strokeWidth=1;align=left;verticalAlign=middle;spacingBottom=-1;arcSize=2;fontFamily=Helvetica;fontSize=12;fontColor=#333333;" parent="c4FLbgzSVyieLMumJbFi-46" vertex="1">
          <mxGeometry x="325" width="325" height="63" as="geometry">
            <mxRectangle width="325" height="63" as="alternateBounds" />
          </mxGeometry>
        </mxCell>
        <mxCell id="c4FLbgzSVyieLMumJbFi-49" value="" style="shape=tableRow;horizontal=0;startSize=0;swimlaneHead=0;swimlaneBody=0;strokeColor=inherit;top=0;left=0;bottom=0;right=0;collapsible=0;dropTarget=0;fillColor=none;points=[[0,0.5],[1,0.5]];portConstraint=eastwest;rounded=1;shadow=1;strokeWidth=1;align=center;verticalAlign=middle;spacingBottom=-1;arcSize=2;fontFamily=Helvetica;fontSize=12;fontColor=default;" parent="c4FLbgzSVyieLMumJbFi-42" vertex="1">
          <mxGeometry y="124" width="650" height="60" as="geometry" />
        </mxCell>
        <mxCell id="c4FLbgzSVyieLMumJbFi-50" value="&lt;div&gt;Pub/Sub Topic: taxi_trips&lt;/div&gt;" style="shape=partialRectangle;html=1;whiteSpace=wrap;connectable=0;strokeColor=#6c8ebf;overflow=hidden;fillColor=#dae8fc;top=0;left=0;bottom=0;right=0;pointerEvents=1;rounded=1;shadow=1;strokeWidth=1;align=left;verticalAlign=middle;spacingBottom=-1;arcSize=2;fontFamily=Helvetica;fontSize=12;" parent="c4FLbgzSVyieLMumJbFi-49" vertex="1">
          <mxGeometry width="325" height="60" as="geometry">
            <mxRectangle width="325" height="60" as="alternateBounds" />
          </mxGeometry>
        </mxCell>
        <mxCell id="c4FLbgzSVyieLMumJbFi-51" value="&lt;div&gt;A messaging channel that receives incoming trip data from the SchwarzShuttle Application, making it available for processing.&lt;/div&gt;" style="shape=partialRectangle;html=1;whiteSpace=wrap;connectable=0;strokeColor=#6c8ebf;overflow=hidden;fillColor=#dae8fc;top=0;left=0;bottom=0;right=0;pointerEvents=1;rounded=1;shadow=1;strokeWidth=1;align=left;verticalAlign=middle;spacingBottom=-1;arcSize=2;fontFamily=Helvetica;fontSize=12;" parent="c4FLbgzSVyieLMumJbFi-49" vertex="1">
          <mxGeometry x="325" width="325" height="60" as="geometry">
            <mxRectangle width="325" height="60" as="alternateBounds" />
          </mxGeometry>
        </mxCell>
        <mxCell id="c4FLbgzSVyieLMumJbFi-52" value="" style="shape=tableRow;horizontal=0;startSize=0;swimlaneHead=0;swimlaneBody=0;strokeColor=inherit;top=0;left=0;bottom=0;right=0;collapsible=0;dropTarget=0;fillColor=none;points=[[0,0.5],[1,0.5]];portConstraint=eastwest;rounded=1;shadow=1;strokeWidth=1;align=center;verticalAlign=middle;spacingBottom=-1;arcSize=2;fontFamily=Helvetica;fontSize=12;fontColor=default;" parent="c4FLbgzSVyieLMumJbFi-42" vertex="1">
          <mxGeometry y="184" width="650" height="63" as="geometry" />
        </mxCell>
        <mxCell id="c4FLbgzSVyieLMumJbFi-53" value="&lt;div&gt;Pub/Sub Subscription: taxi_trips_sub&lt;/div&gt;" style="shape=partialRectangle;html=1;whiteSpace=wrap;connectable=0;strokeColor=#6c8ebf;overflow=hidden;fillColor=#dae8fc;top=0;left=0;bottom=0;right=0;pointerEvents=1;rounded=1;shadow=1;strokeWidth=1;align=left;verticalAlign=middle;spacingBottom=-1;arcSize=2;fontFamily=Helvetica;fontSize=12;" parent="c4FLbgzSVyieLMumJbFi-52" vertex="1">
          <mxGeometry width="325" height="63" as="geometry">
            <mxRectangle width="325" height="63" as="alternateBounds" />
          </mxGeometry>
        </mxCell>
        <mxCell id="c4FLbgzSVyieLMumJbFi-54" value="&lt;div&gt;Allows Dataflow to subscribe to the &quot;taxi_trips&quot; topic, pulling trip data for processing.&lt;/div&gt;" style="shape=partialRectangle;html=1;whiteSpace=wrap;connectable=0;strokeColor=#6c8ebf;overflow=hidden;fillColor=#dae8fc;top=0;left=0;bottom=0;right=0;pointerEvents=1;rounded=1;shadow=1;strokeWidth=1;align=left;verticalAlign=middle;spacingBottom=-1;arcSize=2;fontFamily=Helvetica;fontSize=12;" parent="c4FLbgzSVyieLMumJbFi-52" vertex="1">
          <mxGeometry x="325" width="325" height="63" as="geometry">
            <mxRectangle width="325" height="63" as="alternateBounds" />
          </mxGeometry>
        </mxCell>
        <mxCell id="c4FLbgzSVyieLMumJbFi-55" value="" style="shape=tableRow;horizontal=0;startSize=0;swimlaneHead=0;swimlaneBody=0;strokeColor=inherit;top=0;left=0;bottom=0;right=0;collapsible=0;dropTarget=0;fillColor=none;points=[[0,0.5],[1,0.5]];portConstraint=eastwest;rounded=1;shadow=1;strokeWidth=1;align=center;verticalAlign=middle;spacingBottom=-1;arcSize=2;fontFamily=Helvetica;fontSize=12;fontColor=default;" parent="c4FLbgzSVyieLMumJbFi-42" vertex="1">
          <mxGeometry y="247" width="650" height="62" as="geometry" />
        </mxCell>
        <mxCell id="c4FLbgzSVyieLMumJbFi-56" value="&lt;div&gt;Pub/Sub Topic: taxi_response&lt;/div&gt;" style="shape=partialRectangle;html=1;whiteSpace=wrap;connectable=0;strokeColor=#6c8ebf;overflow=hidden;fillColor=#dae8fc;top=0;left=0;bottom=0;right=0;pointerEvents=1;rounded=1;shadow=1;strokeWidth=1;align=left;verticalAlign=middle;spacingBottom=-1;arcSize=2;fontFamily=Helvetica;fontSize=12;" parent="c4FLbgzSVyieLMumJbFi-55" vertex="1">
          <mxGeometry width="325" height="62" as="geometry">
            <mxRectangle width="325" height="62" as="alternateBounds" />
          </mxGeometry>
        </mxCell>
        <mxCell id="c4FLbgzSVyieLMumJbFi-57" value="&lt;div&gt;A messaging channel that receives processed responses (e.g., receipts) from Dataflow, making them available to send back to the application.&lt;/div&gt;" style="shape=partialRectangle;html=1;whiteSpace=wrap;connectable=0;strokeColor=#6c8ebf;overflow=hidden;fillColor=#dae8fc;top=0;left=0;bottom=0;right=0;pointerEvents=1;rounded=1;shadow=1;strokeWidth=1;align=left;verticalAlign=middle;spacingBottom=-1;arcSize=2;fontFamily=Helvetica;fontSize=12;" parent="c4FLbgzSVyieLMumJbFi-55" vertex="1">
          <mxGeometry x="325" width="325" height="62" as="geometry">
            <mxRectangle width="325" height="62" as="alternateBounds" />
          </mxGeometry>
        </mxCell>
        <mxCell id="c4FLbgzSVyieLMumJbFi-58" value="" style="shape=tableRow;horizontal=0;startSize=0;swimlaneHead=0;swimlaneBody=0;strokeColor=inherit;top=0;left=0;bottom=0;right=0;collapsible=0;dropTarget=0;fillColor=none;points=[[0,0.5],[1,0.5]];portConstraint=eastwest;rounded=1;shadow=1;strokeWidth=1;align=center;verticalAlign=middle;spacingBottom=-1;arcSize=2;fontFamily=Helvetica;fontSize=12;fontColor=default;" parent="c4FLbgzSVyieLMumJbFi-42" vertex="1">
          <mxGeometry y="309" width="650" height="62" as="geometry" />
        </mxCell>
        <mxCell id="c4FLbgzSVyieLMumJbFi-59" value="&lt;div&gt;Pub/Sub Subscription: taxi_response_sub&lt;/div&gt;" style="shape=partialRectangle;html=1;whiteSpace=wrap;connectable=0;strokeColor=#6c8ebf;overflow=hidden;fillColor=#dae8fc;top=0;left=0;bottom=0;right=0;pointerEvents=1;rounded=1;shadow=1;strokeWidth=1;align=left;verticalAlign=middle;spacingBottom=-1;arcSize=2;fontFamily=Helvetica;fontSize=12;" parent="c4FLbgzSVyieLMumJbFi-58" vertex="1">
          <mxGeometry width="325" height="62" as="geometry">
            <mxRectangle width="325" height="62" as="alternateBounds" />
          </mxGeometry>
        </mxCell>
        <mxCell id="c4FLbgzSVyieLMumJbFi-60" value="&lt;div&gt;Allows the SchwarzShuttle Application to subscribe to the &quot;taxi_response&quot; topic, receiving responses for the taxis.&lt;/div&gt;" style="shape=partialRectangle;html=1;whiteSpace=wrap;connectable=0;strokeColor=#6c8ebf;overflow=hidden;fillColor=#dae8fc;top=0;left=0;bottom=0;right=0;pointerEvents=1;rounded=1;shadow=1;strokeWidth=1;align=left;verticalAlign=middle;spacingBottom=-1;arcSize=2;fontFamily=Helvetica;fontSize=12;" parent="c4FLbgzSVyieLMumJbFi-58" vertex="1">
          <mxGeometry x="325" width="325" height="62" as="geometry">
            <mxRectangle width="325" height="62" as="alternateBounds" />
          </mxGeometry>
        </mxCell>
        <mxCell id="c4FLbgzSVyieLMumJbFi-61" value="" style="shape=tableRow;horizontal=0;startSize=0;swimlaneHead=0;swimlaneBody=0;strokeColor=inherit;top=0;left=0;bottom=0;right=0;collapsible=0;dropTarget=0;fillColor=none;points=[[0,0.5],[1,0.5]];portConstraint=eastwest;rounded=1;shadow=1;strokeWidth=1;align=center;verticalAlign=middle;spacingBottom=-1;arcSize=2;fontFamily=Helvetica;fontSize=12;fontColor=default;" parent="c4FLbgzSVyieLMumJbFi-42" vertex="1">
          <mxGeometry y="371" width="650" height="62" as="geometry" />
        </mxCell>
        <mxCell id="c4FLbgzSVyieLMumJbFi-62" value="&lt;div&gt;Dataflow Job: Taxi Data Processing&lt;/div&gt;" style="shape=partialRectangle;html=1;whiteSpace=wrap;connectable=0;strokeColor=#d79b00;overflow=hidden;fillColor=#ffe6cc;top=0;left=0;bottom=0;right=0;pointerEvents=1;rounded=1;shadow=1;strokeWidth=1;align=left;verticalAlign=middle;spacingBottom=-1;arcSize=2;fontFamily=Helvetica;fontSize=12;" parent="c4FLbgzSVyieLMumJbFi-61" vertex="1">
          <mxGeometry width="325" height="62" as="geometry">
            <mxRectangle width="325" height="62" as="alternateBounds" />
          </mxGeometry>
        </mxCell>
        <mxCell id="c4FLbgzSVyieLMumJbFi-63" value="&lt;div&gt;Processes trip data from &quot;taxi_trips_sub&quot; using the service account &quot;dataflow@&amp;lt;project_id&amp;gt;.iam.gserviceaccount.com,&quot; writes results to BigQuery, and publishes responses to &quot;taxi_response.&quot;&lt;/div&gt;" style="shape=partialRectangle;html=1;whiteSpace=wrap;connectable=0;strokeColor=#d79b00;overflow=hidden;fillColor=#ffe6cc;top=0;left=0;bottom=0;right=0;pointerEvents=1;rounded=1;shadow=1;strokeWidth=1;align=left;verticalAlign=middle;spacingBottom=-1;arcSize=2;fontFamily=Helvetica;fontSize=12;" parent="c4FLbgzSVyieLMumJbFi-61" vertex="1">
          <mxGeometry x="325" width="325" height="62" as="geometry">
            <mxRectangle width="325" height="62" as="alternateBounds" />
          </mxGeometry>
        </mxCell>
        <mxCell id="c4FLbgzSVyieLMumJbFi-64" value="" style="shape=tableRow;horizontal=0;startSize=0;swimlaneHead=0;swimlaneBody=0;strokeColor=inherit;top=0;left=0;bottom=0;right=0;collapsible=0;dropTarget=0;fillColor=none;points=[[0,0.5],[1,0.5]];portConstraint=eastwest;rounded=1;shadow=1;strokeWidth=1;align=center;verticalAlign=middle;spacingBottom=-1;arcSize=2;fontFamily=Helvetica;fontSize=12;fontColor=default;" parent="c4FLbgzSVyieLMumJbFi-42" vertex="1">
          <mxGeometry y="433" width="650" height="63" as="geometry" />
        </mxCell>
        <mxCell id="c4FLbgzSVyieLMumJbFi-65" value="&lt;div&gt;BigQuery Dataset: taxi_dataset&lt;/div&gt;" style="shape=partialRectangle;html=1;whiteSpace=wrap;connectable=0;strokeColor=#9673a6;overflow=hidden;fillColor=#e1d5e7;top=0;left=0;bottom=0;right=0;pointerEvents=1;rounded=1;shadow=1;strokeWidth=1;align=left;verticalAlign=middle;spacingBottom=-1;arcSize=2;fontFamily=Helvetica;fontSize=12;" parent="c4FLbgzSVyieLMumJbFi-64" vertex="1">
          <mxGeometry width="325" height="63" as="geometry">
            <mxRectangle width="325" height="63" as="alternateBounds" />
          </mxGeometry>
        </mxCell>
        <mxCell id="c4FLbgzSVyieLMumJbFi-66" value="&lt;div&gt;Stores processed trip data in a table (e.g., &quot;trips&quot;), encrypted with CMEK using the KMS key &quot;projects/schwarzshuttle/locations/global/keyRings/taxi-keyring/cryptoKeys/taxi-key.&quot;&lt;/div&gt;" style="shape=partialRectangle;html=1;whiteSpace=wrap;connectable=0;strokeColor=#9673a6;overflow=hidden;fillColor=#e1d5e7;top=0;left=0;bottom=0;right=0;pointerEvents=1;rounded=1;shadow=1;strokeWidth=1;align=left;verticalAlign=middle;spacingBottom=-1;arcSize=2;fontFamily=Helvetica;fontSize=12;" parent="c4FLbgzSVyieLMumJbFi-64" vertex="1">
          <mxGeometry x="325" width="325" height="63" as="geometry">
            <mxRectangle width="325" height="63" as="alternateBounds" />
          </mxGeometry>
        </mxCell>
        <mxCell id="c4FLbgzSVyieLMumJbFi-67" value="" style="shape=tableRow;horizontal=0;startSize=0;swimlaneHead=0;swimlaneBody=0;strokeColor=inherit;top=0;left=0;bottom=0;right=0;collapsible=0;dropTarget=0;fillColor=none;points=[[0,0.5],[1,0.5]];portConstraint=eastwest;rounded=1;shadow=1;strokeWidth=1;align=center;verticalAlign=middle;spacingBottom=-1;arcSize=2;fontFamily=Helvetica;fontSize=12;fontColor=default;" parent="c4FLbgzSVyieLMumJbFi-42" vertex="1">
          <mxGeometry y="496" width="650" height="60" as="geometry" />
        </mxCell>
        <mxCell id="c4FLbgzSVyieLMumJbFi-68" value="&lt;div&gt;KMS Keyring: taxi_keyring&lt;/div&gt;" style="shape=partialRectangle;html=1;whiteSpace=wrap;connectable=0;strokeColor=#82b366;overflow=hidden;fillColor=#d5e8d4;top=0;left=0;bottom=0;right=0;pointerEvents=1;rounded=1;shadow=1;strokeWidth=1;align=left;verticalAlign=middle;spacingBottom=-1;arcSize=2;fontFamily=Helvetica;fontSize=12;" parent="c4FLbgzSVyieLMumJbFi-67" vertex="1">
          <mxGeometry width="325" height="60" as="geometry">
            <mxRectangle width="325" height="60" as="alternateBounds" />
          </mxGeometry>
        </mxCell>
        <mxCell id="c4FLbgzSVyieLMumJbFi-69" value="&lt;div&gt;A container for encryption keys, holding the &quot;taxi_key&quot; used to encrypt BigQuery data.&lt;/div&gt;" style="shape=partialRectangle;html=1;whiteSpace=wrap;connectable=0;strokeColor=#82b366;overflow=hidden;fillColor=#d5e8d4;top=0;left=0;bottom=0;right=0;pointerEvents=1;rounded=1;shadow=1;strokeWidth=1;align=left;verticalAlign=middle;spacingBottom=-1;arcSize=2;fontFamily=Helvetica;fontSize=12;" parent="c4FLbgzSVyieLMumJbFi-67" vertex="1">
          <mxGeometry x="325" width="325" height="60" as="geometry">
            <mxRectangle width="325" height="60" as="alternateBounds" />
          </mxGeometry>
        </mxCell>
        <mxCell id="c4FLbgzSVyieLMumJbFi-70" value="" style="shape=tableRow;horizontal=0;startSize=0;swimlaneHead=0;swimlaneBody=0;strokeColor=inherit;top=0;left=0;bottom=0;right=0;collapsible=0;dropTarget=0;fillColor=none;points=[[0,0.5],[1,0.5]];portConstraint=eastwest;rounded=1;shadow=1;strokeWidth=1;align=center;verticalAlign=middle;spacingBottom=-1;arcSize=2;fontFamily=Helvetica;fontSize=12;fontColor=default;" parent="c4FLbgzSVyieLMumJbFi-42" vertex="1">
          <mxGeometry y="556" width="650" height="63" as="geometry" />
        </mxCell>
        <mxCell id="c4FLbgzSVyieLMumJbFi-71" value="&lt;div&gt;KMS Key: taxi_key&lt;/div&gt;" style="shape=partialRectangle;html=1;whiteSpace=wrap;connectable=0;strokeColor=#82b366;overflow=hidden;fillColor=#d5e8d4;top=0;left=0;bottom=0;right=0;pointerEvents=1;rounded=1;shadow=1;strokeWidth=1;align=left;verticalAlign=middle;spacingBottom=-1;arcSize=2;fontFamily=Helvetica;fontSize=12;" parent="c4FLbgzSVyieLMumJbFi-70" vertex="1">
          <mxGeometry width="325" height="63" as="geometry">
            <mxRectangle width="325" height="63" as="alternateBounds" />
          </mxGeometry>
        </mxCell>
        <mxCell id="c4FLbgzSVyieLMumJbFi-72" value="&lt;div&gt;The specific encryption key used to secure the &quot;taxi_dataset&quot; in BigQuery, ensuring data protection.&lt;/div&gt;" style="shape=partialRectangle;html=1;whiteSpace=wrap;connectable=0;strokeColor=#82b366;overflow=hidden;fillColor=#d5e8d4;top=0;left=0;bottom=0;right=0;pointerEvents=1;rounded=1;shadow=1;strokeWidth=1;align=left;verticalAlign=middle;spacingBottom=-1;arcSize=2;fontFamily=Helvetica;fontSize=12;" parent="c4FLbgzSVyieLMumJbFi-70" vertex="1">
          <mxGeometry x="325" width="325" height="63" as="geometry">
            <mxRectangle width="325" height="63" as="alternateBounds" />
          </mxGeometry>
        </mxCell>
        <mxCell id="c4FLbgzSVyieLMumJbFi-73" value="" style="shape=tableRow;horizontal=0;startSize=0;swimlaneHead=0;swimlaneBody=0;strokeColor=inherit;top=0;left=0;bottom=0;right=0;collapsible=0;dropTarget=0;fillColor=none;points=[[0,0.5],[1,0.5]];portConstraint=eastwest;rounded=1;shadow=1;strokeWidth=1;align=center;verticalAlign=middle;spacingBottom=-1;arcSize=2;fontFamily=Helvetica;fontSize=12;fontColor=default;" parent="c4FLbgzSVyieLMumJbFi-42" vertex="1">
          <mxGeometry y="619" width="650" height="61" as="geometry" />
        </mxCell>
        <mxCell id="c4FLbgzSVyieLMumJbFi-74" value="&lt;div&gt;IAM Policy Binding&lt;/div&gt;" style="shape=partialRectangle;html=1;whiteSpace=wrap;connectable=0;strokeColor=#82b366;overflow=hidden;fillColor=#d5e8d4;top=0;left=0;bottom=0;right=0;pointerEvents=1;rounded=1;shadow=1;strokeWidth=1;align=left;verticalAlign=middle;spacingBottom=-1;arcSize=2;fontFamily=Helvetica;fontSize=12;" parent="c4FLbgzSVyieLMumJbFi-73" vertex="1">
          <mxGeometry width="325" height="61" as="geometry">
            <mxRectangle width="325" height="61" as="alternateBounds" />
          </mxGeometry>
        </mxCell>
        <mxCell id="c4FLbgzSVyieLMumJbFi-75" value="&lt;div&gt;Grants the &quot;roles/bigquery.dataEditor&quot; role to the Dataflow service account, allowing it to write data to BigQuery.&lt;/div&gt;" style="shape=partialRectangle;html=1;whiteSpace=wrap;connectable=0;strokeColor=#82b366;overflow=hidden;fillColor=#d5e8d4;top=0;left=0;bottom=0;right=0;pointerEvents=1;rounded=1;shadow=1;strokeWidth=1;align=left;verticalAlign=middle;spacingBottom=-1;arcSize=2;fontFamily=Helvetica;fontSize=12;" parent="c4FLbgzSVyieLMumJbFi-73" vertex="1">
          <mxGeometry x="325" width="325" height="61" as="geometry">
            <mxRectangle width="325" height="61" as="alternateBounds" />
          </mxGeometry>
        </mxCell>
        <mxCell id="c4FLbgzSVyieLMumJbFi-76" style="shape=tableRow;horizontal=0;startSize=0;swimlaneHead=0;swimlaneBody=0;strokeColor=inherit;top=0;left=0;bottom=0;right=0;collapsible=0;dropTarget=0;fillColor=none;points=[[0,0.5],[1,0.5]];portConstraint=eastwest;rounded=1;shadow=1;strokeWidth=1;align=center;verticalAlign=middle;spacingBottom=-1;arcSize=2;fontFamily=Helvetica;fontSize=12;fontColor=default;" parent="c4FLbgzSVyieLMumJbFi-42" vertex="1">
          <mxGeometry y="680" width="650" height="61" as="geometry" />
        </mxCell>
        <mxCell id="c4FLbgzSVyieLMumJbFi-77" value="Report &amp;amp; Share Analysis" style="shape=partialRectangle;html=1;whiteSpace=wrap;connectable=0;strokeColor=#666666;overflow=hidden;fillColor=#f5f5f5;top=0;left=0;bottom=0;right=0;pointerEvents=1;rounded=1;shadow=1;strokeWidth=1;align=left;verticalAlign=middle;spacingBottom=-1;arcSize=2;fontFamily=Helvetica;fontSize=12;fontColor=#333333;" parent="c4FLbgzSVyieLMumJbFi-76" vertex="1">
          <mxGeometry width="325" height="61" as="geometry">
            <mxRectangle width="325" height="61" as="alternateBounds" />
          </mxGeometry>
        </mxCell>
        <mxCell id="c4FLbgzSVyieLMumJbFi-78" value="&lt;div&gt;Represents the final step where business analysts access BigQuery data for reporting and analysis.&lt;/div&gt;" style="shape=partialRectangle;html=1;whiteSpace=wrap;connectable=0;strokeColor=#666666;overflow=hidden;fillColor=#f5f5f5;top=0;left=0;bottom=0;right=0;pointerEvents=1;rounded=1;shadow=1;strokeWidth=1;align=left;verticalAlign=middle;spacingBottom=-1;arcSize=2;fontFamily=Helvetica;fontSize=12;fontColor=#333333;" parent="c4FLbgzSVyieLMumJbFi-76" vertex="1">
          <mxGeometry x="325" width="325" height="61" as="geometry">
            <mxRectangle width="325" height="61" as="alternateBounds" />
          </mxGeometry>
        </mxCell>
      </root>
    </mxGraphModel>
  </diagram>
  <diagram id="TEOgIlqKWnukB9sm68yy" name="Security Diagram">
    <mxGraphModel dx="2074" dy="1098" grid="1" gridSize="10" guides="1" tooltips="1" connect="1" arrows="1" fold="1" page="1" pageScale="1" pageWidth="850" pageHeight="1100" math="0" shadow="0">
      <root>
        <mxCell id="0" />
        <mxCell id="1" parent="0" />
        <mxCell id="j-hVJdmg6qWFekGqpGMa-1" value="&lt;b&gt;Google &lt;/b&gt;Cloud Platform" style="fillColor=#F6F6F6;strokeColor=none;shadow=0;gradientColor=none;fontSize=14;align=left;spacing=10;fontColor=#717171;9E9E9E;verticalAlign=top;spacingTop=-4;fontStyle=0;spacingLeft=40;html=1;" parent="1" vertex="1">
          <mxGeometry x="240" y="220" width="760" height="820" as="geometry" />
        </mxCell>
        <mxCell id="j-hVJdmg6qWFekGqpGMa-2" value="" style="shape=mxgraph.gcp2.google_cloud_platform;fillColor=#F6F6F6;strokeColor=none;shadow=0;gradientColor=none;" parent="j-hVJdmg6qWFekGqpGMa-1" vertex="1">
          <mxGeometry width="23" height="20" relative="1" as="geometry">
            <mxPoint x="20" y="10" as="offset" />
          </mxGeometry>
        </mxCell>
        <mxCell id="j-hVJdmg6qWFekGqpGMa-3" value="" style="strokeColor=#dddddd;shadow=1;strokeWidth=1;rounded=1;absoluteArcSize=1;arcSize=2;" parent="j-hVJdmg6qWFekGqpGMa-1" vertex="1">
          <mxGeometry x="499.998867781155" y="80.00000000000001" width="187.15036094224922" height="63.77" as="geometry" />
        </mxCell>
        <mxCell id="j-hVJdmg6qWFekGqpGMa-4" value="&lt;font color=&quot;#000000&quot;&gt;taxi_dataset&lt;br&gt;&lt;/font&gt;BigQuery" style="editableCssRules=.*;html=1;fontColor=#999999;shape=image;verticalLabelPosition=middle;verticalAlign=middle;labelPosition=right;align=left;spacingLeft=20;part=1;points=[];imageAspect=0;image=data:image/svg+xml,PHN2ZyB4bWxucz0iaHR0cDovL3d3dy53My5vcmcvMjAwMC9zdmciIHhtbG5zOnY9Imh0dHBzOi8vdmVjdGEuaW8vbmFubyIgd2lkdGg9IjIwLjAwMTA0NTIyNzA1MDc4IiBoZWlnaHQ9IjIwLjAwMTA0NTIyNzA1MDc4IiBmaWxsLXJ1bGU9ImV2ZW5vZGQiIHZpZXdCb3g9IjAgMCAyMC4wMDEwNDUyMjcwNTA3OCAyMC4wMDEwNDUyMjcwNTA3OCI+JiN4YTsJPHN0eWxlIHR5cGU9InRleHQvY3NzIj4mI3hhOwkuc3Qwe2ZpbGw6I2FlY2JmYTt9JiN4YTsJLnN0MXtmaWxsOiM2NjlkZjY7fSYjeGE7CS5zdDJ7ZmlsbDojNDI4NWY0O30mI3hhOwk8L3N0eWxlPiYjeGE7CTxwYXRoIGNsYXNzPSJzdDAiIGQ9Ik00LjczIDguODN2Mi42M2E0LjkxIDQuOTEgMCAwIDAgMS43MSAxLjc0VjguODN6Ii8+JiN4YTsJPHBhdGggY2xhc3M9InN0MSIgZD0iTTcuODkgNi40MXY3LjUzQTcuNjIgNy42MiAwIDAgMCA5IDE0YTggOCAwIDAgMCAxIDBWNi40MXoiLz4mI3hhOwk8cGF0aCBjbGFzcz0ic3QwIiBkPSJNMTEuNjQgOS44NnYzLjI5YTUgNSAwIDAgMCAxLjctMS44MlY5Ljg2eiIvPiYjeGE7CTxwYXRoIGNsYXNzPSJzdDIiIGQ9Ik0xNS43NCAxNC4zMmwtMS40MiAxLjQyYS40Mi40MiAwIDAgMCAwIC42bDMuNTQgMy41NGEuNDIuNDIgMCAwIDAgLjU5IDBsMS40My0xLjQzYS40Mi40MiAwIDAgMCAwLS41OWwtMy41NC0zLjU0YS40Mi40MiAwIDAgMC0uNiAwIi8+JiN4YTsJPHBhdGggY2xhc3M9InN0MSIgZD0iTTkgMGE5IDkgMCAxIDAgMCAxOEE5IDkgMCAxIDAgOSAwbTAgMTUuNjlhNi42OCA2LjY4IDAgMCAxIC4wMDctMTMuMzYgNi42OCA2LjY4IDAgMCAxIDQuNzI3IDExLjQwM0E2LjY4IDYuNjggMCAwIDEgOSAxNS42OSIvPiYjeGE7PC9zdmc+;" parent="j-hVJdmg6qWFekGqpGMa-3" vertex="1">
          <mxGeometry width="30" height="30" relative="1" as="geometry">
            <mxPoint x="15" y="15" as="offset" />
          </mxGeometry>
        </mxCell>
        <mxCell id="j-hVJdmg6qWFekGqpGMa-6" value="Encrypted at rest with CMEK: &#xa;projects/schwarzshuttle/locations/global/keyRings/taxi-keyring/cryptoKeys/taxi-key." style="strokeColor=#dddddd;shadow=1;strokeWidth=1;rounded=1;absoluteArcSize=1;arcSize=2;align=left;verticalAlign=bottom;spacingBottom=8;" parent="j-hVJdmg6qWFekGqpGMa-1" vertex="1">
          <mxGeometry x="324.75" y="240" width="430" height="100" as="geometry" />
        </mxCell>
        <mxCell id="j-hVJdmg6qWFekGqpGMa-7" style="edgeStyle=orthogonalEdgeStyle;rounded=0;html=1;dashed=1;labelBackgroundColor=none;startArrow=none;startFill=0;startSize=4;endArrow=blockThin;endFill=1;endSize=4;strokeColor=#4284F3;strokeWidth=2;fontSize=12;exitX=0.529;exitY=0.966;exitDx=0;exitDy=0;exitPerimeter=0;entryX=0.635;entryY=0.05;entryDx=0;entryDy=0;entryPerimeter=0;" parent="j-hVJdmg6qWFekGqpGMa-1" source="j-hVJdmg6qWFekGqpGMa-3" target="j-hVJdmg6qWFekGqpGMa-6" edge="1">
          <mxGeometry relative="1" as="geometry">
            <mxPoint x="517.262382218845" y="180" as="sourcePoint" />
            <mxPoint x="569.7958168693009" y="180" as="targetPoint" />
          </mxGeometry>
        </mxCell>
        <mxCell id="j-hVJdmg6qWFekGqpGMa-9" value="Key Management Service" style="sketch=0;html=1;verticalAlign=middle;labelPosition=right;verticalLabelPosition=middle;align=left;spacingTop=0;fontSize=11;fontStyle=1;fontColor=#999999;shape=image;aspect=fixed;imageAspect=0;image=data:image/svg+xml,PHN2ZyB4bWxucz0iaHR0cDovL3d3dy53My5vcmcvMjAwMC9zdmciIHhtbG5zOnY9Imh0dHBzOi8vdmVjdGEuaW8vbmFubyIgd2lkdGg9IjMxMC43NzU2MDY1NDM4NjAyNSIgaGVpZ2h0PSIzNzcuOTUzMDI4ODM1NTI1NDYiIHZpZXdCb3g9Ii0wLjE0MDAwMDAwMDU5NjA0NjQ1IC0wLjQ2NzAwMDAwNzYyOTM5NDUzIDgyLjIyNTk5NzkyNDgwNDY5IDEwMC4wMDAwMDc2MjkzOTQ1MyI+JiN4YTs8c3R5bGUgdHlwZT0idGV4dC9jc3MiPiYjeGE7CS5zdDB7ZmlsbDojNDI4NWY0O30mI3hhOwkuc3Qxe2ZpbGw6IzY2OWRmNjt9JiN4YTsJLnN0MntmaWxsOiNmZmY7fSYjeGE7PC9zdHlsZT4mI3hhOwk8cGF0aCBjbGFzcz0ic3QwIiBkPSJNNDAuOTczLS40NjdsNDEuMTEzIDE3LjQ5M3YyOS42NTRjMCAyNy40MTgtMjQuNjA4IDUwLjgzNi00MS4xMTMgNTIuODUzeiIvPiYjeGE7CTxwYXRoIGNsYXNzPSJzdDEiIGQ9Ik00MC45NzMtLjQ2N0wtLjE0IDE3LjAyNXYyOS42NTRjMCAyNy40MTggMjQuNjA4IDUwLjgzNiA0MS4xMTMgNTIuODUzeiIvPiYjeGE7CTxwYXRoIGNsYXNzPSJzdDIiIGQ9Ik00MS4yNTMgMTYuNjA1Yy05LjU4NCAwLTE3LjQ0NSA3Ljg2Mi0xNy40NDUgMTcuNDQ1IDAgOC4wODQgNS41OTQgMTQuOTQyIDEzLjA5NiAxNi44OTF2OS40ODhoLTkuODY5djguNzAxaDkuODY5djUuMzc3aC02LjMxNXY4LjcwMWg2LjMxNXYyLjE5N2g4LjcwMVY1MC45NDFDNTMuMTA2IDQ4Ljk5MiA1OC43IDQyLjEzNCA1OC43IDM0LjA1YzAtOS41ODQtNy44NjMtMTcuNDQ1LTE3LjQ0Ny0xNy40NDV6bTAgOC42OTlBOC42OCA4LjY4IDAgMCAxIDUwIDM0LjA1YTguNjggOC42OCAwIDAgMS04Ljc0OCA4Ljc0NiA4LjY4IDguNjggMCAwIDEtOC43NDYtOC43NDYgOC42OCA4LjY4IDAgMCAxIDguNzQ2LTguNzQ2eiIvPiYjeGE7PC9zdmc+;spacingLeft=20;" parent="j-hVJdmg6qWFekGqpGMa-1" vertex="1">
          <mxGeometry x="354.7514513677811" y="249.99846153846144" width="27.46153846153846" height="33.92307692307692" as="geometry" />
        </mxCell>
        <mxCell id="j-hVJdmg6qWFekGqpGMa-5" value="" style="strokeColor=#dddddd;shadow=1;strokeWidth=1;rounded=1;absoluteArcSize=1;arcSize=2;" parent="j-hVJdmg6qWFekGqpGMa-1" vertex="1">
          <mxGeometry x="24.75" y="370" width="645.25" height="360" as="geometry" />
        </mxCell>
        <mxCell id="j-hVJdmg6qWFekGqpGMa-8" value="IAM Policies" style="sketch=0;html=1;verticalAlign=middle;labelPosition=right;verticalLabelPosition=middle;align=left;spacingTop=0;fontSize=11;fontStyle=1;fontColor=#999999;shape=image;aspect=fixed;imageAspect=0;image=data:image/svg+xml,PHN2ZyB4bWxucz0iaHR0cDovL3d3dy53My5vcmcvMjAwMC9zdmciIHhtbG5zOnY9Imh0dHBzOi8vdmVjdGEuaW8vbmFubyIgd2lkdGg9IjE2LjQyMDAwMDA3NjI5Mzk0NSIgaGVpZ2h0PSIyMC4wNDk5OTkyMzcwNjA1NDciIGZpbGwtcnVsZT0iZXZlbm9kZCIgdmlld0JveD0iMCAwIDE2LjQyMDAwMDA3NjI5Mzk0NSAyMC4wNDk5OTkyMzcwNjA1NDciPiYjeGE7CTxzdHlsZSB0eXBlPSJ0ZXh0L2NzcyI+JiN4YTsJLnN0MHtmaWxsOiM0Mjg1ZjQ7fSYjeGE7CS5zdDF7ZmlsbDojNjY5ZGY2O30mI3hhOwk8L3N0eWxlPiYjeGE7CTxwYXRoIGNsYXNzPSJzdDEiIGQ9Ik04LjIxIDBMMCAzLjQydjUuNjNjMCA1LjA2IDMuNSA5LjggOC4yMSAxMSA0LjcxLTEuMTUgOC4yMS01Ljg5IDguMjEtMTAuOTVWMy40MnptMCAzLjc5YTIuNjMgMi42MyAwIDAgMSAxLjAwNSA1LjA2QTIuNjMgMi42MyAwIDAgMSA2LjM1IDQuNTZhMi42MyAyLjYzIDAgMCAxIDEuODYtLjc3em00LjExIDExLjE1YTguNjQgOC42NCAwIDAgMS00LjExIDIuOTMgOC42NCA4LjY0IDAgMCAxLTQuMTEtMi45M3YtMi4yNWMwLTEuNjcgMi43NC0yLjUyIDQuMTEtMi41MnM0LjExLjg1IDQuMTEgMi41MnoiLz4mI3hhOwk8cGF0aCBjbGFzcz0ic3QwIiBkPSJNOC4yMSAwdjMuNzlhMi42MyAyLjYzIDAgMSAxIDAgNS4yNnYxLjEyYzEuMzcgMCA0LjExLjg1IDQuMTEgMi41MnYyLjI1YTguNjQgOC42NCAwIDAgMS00LjExIDIuOTNWMjBjNC43MS0xLjE1IDguMjEtNS44OSA4LjIxLTEwLjk1VjMuNDJ6Ii8+JiN4YTs8L3N2Zz4=;spacingLeft=20;" parent="j-hVJdmg6qWFekGqpGMa-1" vertex="1">
          <mxGeometry x="44.75431990881456" y="390.0038461538461" width="27.46153846153846" height="33.92307692307692" as="geometry" />
        </mxCell>
        <mxCell id="HKxkW7NxUKXTtHIowlVs-1" value="" style="shape=table;startSize=0;container=1;collapsible=0;childLayout=tableLayout;" parent="j-hVJdmg6qWFekGqpGMa-1" vertex="1">
          <mxGeometry x="39.620000000000005" y="450" width="560.25" height="250" as="geometry" />
        </mxCell>
        <mxCell id="HKxkW7NxUKXTtHIowlVs-2" value="" style="shape=tableRow;horizontal=0;startSize=0;swimlaneHead=0;swimlaneBody=0;strokeColor=inherit;top=0;left=0;bottom=0;right=0;collapsible=0;dropTarget=0;fillColor=none;points=[[0,0.5],[1,0.5]];portConstraint=eastwest;align=left;" parent="HKxkW7NxUKXTtHIowlVs-1" vertex="1">
          <mxGeometry width="560.25" height="64" as="geometry" />
        </mxCell>
        <mxCell id="HKxkW7NxUKXTtHIowlVs-3" value="&lt;b&gt;Account type&lt;/b&gt;" style="shape=partialRectangle;html=1;whiteSpace=wrap;connectable=0;strokeColor=inherit;overflow=hidden;fillColor=none;top=0;left=0;bottom=0;right=0;pointerEvents=1;align=left;" parent="HKxkW7NxUKXTtHIowlVs-2" vertex="1">
          <mxGeometry width="90" height="64" as="geometry">
            <mxRectangle width="90" height="64" as="alternateBounds" />
          </mxGeometry>
        </mxCell>
        <mxCell id="HKxkW7NxUKXTtHIowlVs-14" value="&lt;b&gt;Account Details&lt;/b&gt;" style="shape=partialRectangle;html=1;whiteSpace=wrap;connectable=0;strokeColor=inherit;overflow=hidden;fillColor=none;top=0;left=0;bottom=0;right=0;pointerEvents=1;align=left;" parent="HKxkW7NxUKXTtHIowlVs-2" vertex="1">
          <mxGeometry x="90" width="300" height="64" as="geometry">
            <mxRectangle width="300" height="64" as="alternateBounds" />
          </mxGeometry>
        </mxCell>
        <mxCell id="HKxkW7NxUKXTtHIowlVs-4" value="&lt;b&gt;Description&lt;/b&gt;" style="shape=partialRectangle;html=1;whiteSpace=wrap;connectable=0;strokeColor=inherit;overflow=hidden;fillColor=none;top=0;left=0;bottom=0;right=0;pointerEvents=1;align=left;" parent="HKxkW7NxUKXTtHIowlVs-2" vertex="1">
          <mxGeometry x="390" width="170" height="64" as="geometry">
            <mxRectangle width="170" height="64" as="alternateBounds" />
          </mxGeometry>
        </mxCell>
        <mxCell id="HKxkW7NxUKXTtHIowlVs-5" value="" style="shape=tableRow;horizontal=0;startSize=0;swimlaneHead=0;swimlaneBody=0;strokeColor=inherit;top=0;left=0;bottom=0;right=0;collapsible=0;dropTarget=0;fillColor=none;points=[[0,0.5],[1,0.5]];portConstraint=eastwest;" parent="HKxkW7NxUKXTtHIowlVs-1" vertex="1">
          <mxGeometry y="64" width="560.25" height="61" as="geometry" />
        </mxCell>
        <mxCell id="HKxkW7NxUKXTtHIowlVs-6" value="&lt;div&gt;Application Service Account&lt;/div&gt;" style="shape=partialRectangle;html=1;whiteSpace=wrap;connectable=0;strokeColor=inherit;overflow=hidden;fillColor=none;top=0;left=0;bottom=0;right=0;pointerEvents=1;align=left;" parent="HKxkW7NxUKXTtHIowlVs-5" vertex="1">
          <mxGeometry width="90" height="61" as="geometry">
            <mxRectangle width="90" height="61" as="alternateBounds" />
          </mxGeometry>
        </mxCell>
        <mxCell id="HKxkW7NxUKXTtHIowlVs-15" value="&lt;div&gt;pubsub.topics.publish on taxi_trips&lt;/div&gt;&lt;div&gt;&lt;div&gt;pubsub.subscriptions.consume on taxi_response_sub&lt;/div&gt;&lt;/div&gt;" style="shape=partialRectangle;html=1;whiteSpace=wrap;connectable=0;strokeColor=inherit;overflow=hidden;fillColor=none;top=0;left=0;bottom=0;right=0;pointerEvents=1;align=left;" parent="HKxkW7NxUKXTtHIowlVs-5" vertex="1">
          <mxGeometry x="90" width="300" height="61" as="geometry">
            <mxRectangle width="300" height="61" as="alternateBounds" />
          </mxGeometry>
        </mxCell>
        <mxCell id="HKxkW7NxUKXTtHIowlVs-7" value="&lt;div&gt;publishes to &quot;taxi_trips,&quot; subscribes to &quot;taxi_response_sub&lt;/div&gt;" style="shape=partialRectangle;html=1;whiteSpace=wrap;connectable=0;strokeColor=inherit;overflow=hidden;fillColor=none;top=0;left=0;bottom=0;right=0;pointerEvents=1;align=left;" parent="HKxkW7NxUKXTtHIowlVs-5" vertex="1">
          <mxGeometry x="390" width="170" height="61" as="geometry">
            <mxRectangle width="170" height="61" as="alternateBounds" />
          </mxGeometry>
        </mxCell>
        <mxCell id="HKxkW7NxUKXTtHIowlVs-8" value="" style="shape=tableRow;horizontal=0;startSize=0;swimlaneHead=0;swimlaneBody=0;strokeColor=inherit;top=0;left=0;bottom=0;right=0;collapsible=0;dropTarget=0;fillColor=none;points=[[0,0.5],[1,0.5]];portConstraint=eastwest;" parent="HKxkW7NxUKXTtHIowlVs-1" vertex="1">
          <mxGeometry y="125" width="560.25" height="64" as="geometry" />
        </mxCell>
        <mxCell id="HKxkW7NxUKXTtHIowlVs-9" value="&lt;div&gt;Dataflow Service Account&lt;/div&gt;" style="shape=partialRectangle;html=1;whiteSpace=wrap;connectable=0;strokeColor=inherit;overflow=hidden;fillColor=none;top=0;left=0;bottom=0;right=0;pointerEvents=1;align=left;" parent="HKxkW7NxUKXTtHIowlVs-8" vertex="1">
          <mxGeometry width="90" height="64" as="geometry">
            <mxRectangle width="90" height="64" as="alternateBounds" />
          </mxGeometry>
        </mxCell>
        <mxCell id="HKxkW7NxUKXTtHIowlVs-16" value="&lt;div&gt;pubsub.subscriptions.consume on taxi_trips_sub&lt;/div&gt;&lt;div&gt;&lt;div&gt;pubsub.topics.publish on taxi_response&lt;/div&gt;&lt;/div&gt;&lt;div&gt;&lt;div&gt;bigquery.dataEditor on taxi_dataset&lt;/div&gt;&lt;/div&gt;" style="shape=partialRectangle;html=1;whiteSpace=wrap;connectable=0;strokeColor=inherit;overflow=hidden;fillColor=none;top=0;left=0;bottom=0;right=0;pointerEvents=1;align=left;" parent="HKxkW7NxUKXTtHIowlVs-8" vertex="1">
          <mxGeometry x="90" width="300" height="64" as="geometry">
            <mxRectangle width="300" height="64" as="alternateBounds" />
          </mxGeometry>
        </mxCell>
        <mxCell id="HKxkW7NxUKXTtHIowlVs-10" value="&lt;div&gt;consumes &quot;taxi_trips_sub,&quot; publishes to &quot;taxi_response,&quot; edits BigQuery.&lt;/div&gt;" style="shape=partialRectangle;html=1;whiteSpace=wrap;connectable=0;strokeColor=inherit;overflow=hidden;fillColor=none;top=0;left=0;bottom=0;right=0;pointerEvents=1;align=left;" parent="HKxkW7NxUKXTtHIowlVs-8" vertex="1">
          <mxGeometry x="390" width="170" height="64" as="geometry">
            <mxRectangle width="170" height="64" as="alternateBounds" />
          </mxGeometry>
        </mxCell>
        <mxCell id="HKxkW7NxUKXTtHIowlVs-11" value="" style="shape=tableRow;horizontal=0;startSize=0;swimlaneHead=0;swimlaneBody=0;strokeColor=inherit;top=0;left=0;bottom=0;right=0;collapsible=0;dropTarget=0;fillColor=none;points=[[0,0.5],[1,0.5]];portConstraint=eastwest;" parent="HKxkW7NxUKXTtHIowlVs-1" vertex="1">
          <mxGeometry y="189" width="560.25" height="61" as="geometry" />
        </mxCell>
        <mxCell id="HKxkW7NxUKXTtHIowlVs-12" value="&lt;div&gt;BigQuery Service Account&lt;/div&gt;" style="shape=partialRectangle;html=1;whiteSpace=wrap;connectable=0;strokeColor=inherit;overflow=hidden;fillColor=none;top=0;left=0;bottom=0;right=0;pointerEvents=1;align=left;" parent="HKxkW7NxUKXTtHIowlVs-11" vertex="1">
          <mxGeometry width="90" height="61" as="geometry">
            <mxRectangle width="90" height="61" as="alternateBounds" />
          </mxGeometry>
        </mxCell>
        <mxCell id="HKxkW7NxUKXTtHIowlVs-17" value="&lt;div&gt;cloudkms.cryptoKeyEncrypterDecrypter on projects/schwarzshuttle/locations/global/keyRings/taxi-keyring/cryptoKeys/taxi-key&lt;/div&gt;" style="shape=partialRectangle;html=1;whiteSpace=wrap;connectable=0;strokeColor=inherit;overflow=hidden;fillColor=none;top=0;left=0;bottom=0;right=0;pointerEvents=1;align=left;" parent="HKxkW7NxUKXTtHIowlVs-11" vertex="1">
          <mxGeometry x="90" width="300" height="61" as="geometry">
            <mxRectangle width="300" height="61" as="alternateBounds" />
          </mxGeometry>
        </mxCell>
        <mxCell id="HKxkW7NxUKXTtHIowlVs-13" value="&lt;div&gt;uses KMS key for encryption&lt;/div&gt;" style="shape=partialRectangle;html=1;whiteSpace=wrap;connectable=0;strokeColor=inherit;overflow=hidden;fillColor=none;top=0;left=0;bottom=0;right=0;pointerEvents=1;align=left;" parent="HKxkW7NxUKXTtHIowlVs-11" vertex="1">
          <mxGeometry x="390" width="170" height="61" as="geometry">
            <mxRectangle width="170" height="61" as="alternateBounds" />
          </mxGeometry>
        </mxCell>
        <mxCell id="j-hVJdmg6qWFekGqpGMa-25" value="" style="strokeColor=#dddddd;shadow=1;strokeWidth=1;rounded=1;absoluteArcSize=1;arcSize=2;" parent="j-hVJdmg6qWFekGqpGMa-1" vertex="1">
          <mxGeometry x="250" y="80" width="194.5" height="60" as="geometry" />
        </mxCell>
        <mxCell id="j-hVJdmg6qWFekGqpGMa-26" value="&lt;font color=&quot;#000000&quot;&gt;Taxi Data Processing&lt;/font&gt;&lt;br&gt;Dataflow" style="editableCssRules=.*;html=1;fontColor=#999999;shape=image;verticalLabelPosition=middle;verticalAlign=middle;labelPosition=right;align=left;spacingLeft=20;part=1;points=[];imageAspect=0;image=data:image/svg+xml,PHN2ZyB4bWxucz0iaHR0cDovL3d3dy53My5vcmcvMjAwMC9zdmciIHhtbG5zOnY9Imh0dHBzOi8vdmVjdGEuaW8vbmFubyIgd2lkdGg9IjE0LjUxOTk5OTUwNDA4OTM1NSIgaGVpZ2h0PSIyMCIgdmlld0JveD0iMCAwIDE0LjUxOTk5OTUwNDA4OTM1NSAyMCI+JiN4YTsJPHN0eWxlIHR5cGU9InRleHQvY3NzIj4mI3hhOwkuc3Qwe2ZpbGwtcnVsZTpldmVub2RkfSYjeGE7CS5zdDF7ZmlsbDojNjY5ZGY2O30mI3hhOwkuc3Qye2ZpbGw6I2FlY2JmYTt9JiN4YTsJLnN0M3tmaWxsOiM0Mjg1ZjQ7fSYjeGE7CTwvc3R5bGU+JiN4YTsJPGcgY2xhc3M9InN0MCI+JiN4YTsJCTxwYXRoIGNsYXNzPSJzdDEiIGQ9Ik03LjM3IDIuMDNsLTEuNzIuOTYgMS41MiAxLjUtLjAyIDEuNzMgMS4wMi4wMS4wMi0xLjczIDQuMjQgMi41Ni0uMDEgMS4wNyAxLjc3LjAzVjYuMTFMOS4wNSAzLjA0bC0uMjctLjk0eiIvPiYjeGE7CQk8cGF0aCBjbGFzcz0ic3QyIiBkPSJNNy4zNiAyLjAzbC0xLjQyLjM1LS4yOS42MUwuMzkgNS45Mi4zNiA3Ljk3IDIuMTQgOGwuMDItMS4wNyA0LjMxLTIuNDUtLjAyIDEuNzMuODYuMDEuMDYtNC4xOXoiLz4mI3hhOwkJPGcgY2xhc3M9InN0MSI+JiN4YTsJCQk8cGF0aCBkPSJNNy4zNiAyLjAzTDMuOTUgMCAyLjIxLjk1bDMuNDQgMi4wNCAxLjcyLS45NnptLjcxIDExLjc2bC0xLjcyLS4wMi0uMDIgMS43Mi44MiAyLjQ4IDEuNDItLjEyLjI5LS44NSA1LjI3LTIuOTMuMDMtMi4wOS0xLjc5LS4wMi0uMDIgMS4xLTQuMyAyLjQ1eiIvPiYjeGE7CQkJPHBhdGggZD0iTTcuMTUgMTcuOTdsLTMuNDYgMS45NGgtLjA1bC0xLjY2LS45OSAzLjQ5LTEuOTYgMS42OCAxLjAxeiIvPiYjeGE7CQk8L2c+JiN4YTsJCTxwYXRoIGNsYXNzPSJzdDMiIGQ9Ik0xMC44OC4wOWgtLjA1TDcuMzcgMi4wM2wxLjY4IDEuMDEgMy40OS0xLjk2ek0xMC42MiAyMGgtLjA1bC0zLjQyLTIuMDNoMCAwIDBsMS43Mi0uOTYgMy40NCAyLjA0eiIvPiYjeGE7CQk8cGF0aCBjbGFzcz0ic3QyIiBkPSJNLjMzIDEzLjg5di0yaDEuNzZsLS4wMSAxLjA0IDQuMjUgMi41Ni4wMi0xLjcyLjg2LjAxLS4wNiA0LjE4LTEuNjgtMXoiLz4mI3hhOwk8L2c+JiN4YTsJPGNpcmNsZSBjbGFzcz0ic3QyIiBjeD0iMTMuMzgiIGN5PSIxMC4wNCIgcj0iMS4xNCIvPiYjeGE7CTxjaXJjbGUgY2xhc3M9InN0MiIgY3g9IjEuMTQiIGN5PSI5Ljg4IiByPSIxLjE0Ii8+JiN4YTsJPGNpcmNsZSBjbGFzcz0ic3QyIiBjeD0iNy4zMiIgY3k9IjcuOTkiIHI9IjEuMTQiLz4mI3hhOwk8Y2lyY2xlIGNsYXNzPSJzdDIiIGN4PSI3LjIzIiBjeT0iMTIiIHI9IjEuMTQiLz4mI3hhOzwvc3ZnPg==;" parent="j-hVJdmg6qWFekGqpGMa-25" vertex="1">
          <mxGeometry width="22" height="30" relative="1" as="geometry">
            <mxPoint x="19" y="15" as="offset" />
          </mxGeometry>
        </mxCell>
        <mxCell id="j-hVJdmg6qWFekGqpGMa-23" value="" style="strokeColor=#dddddd;shadow=1;strokeWidth=1;rounded=1;absoluteArcSize=1;arcSize=2;" parent="j-hVJdmg6qWFekGqpGMa-1" vertex="1">
          <mxGeometry x="44.75" y="80" width="130" height="60" as="geometry" />
        </mxCell>
        <mxCell id="j-hVJdmg6qWFekGqpGMa-24" value="&lt;font color=&quot;#000000&quot;&gt;taxi_trips&lt;/font&gt;&lt;br&gt;Pub/Sub" style="editableCssRules=.*;html=1;fontColor=#999999;shape=image;verticalLabelPosition=middle;verticalAlign=middle;labelPosition=right;align=left;spacingLeft=20;part=1;points=[];imageAspect=0;image=data:image/svg+xml,PHN2ZyB4bWxucz0iaHR0cDovL3d3dy53My5vcmcvMjAwMC9zdmciIHhtbG5zOnY9Imh0dHBzOi8vdmVjdGEuaW8vbmFubyIgd2lkdGg9IjE4LjMxOTk5OTY5NDgyNDIyIiBoZWlnaHQ9IjIwLjAwMDAwMTkwNzM0ODYzMyIgdmlld0JveD0iMCAwIDE4LjMxOTk5OTY5NDgyNDIyIDIwLjAwMDAwMTkwNzM0ODYzMyI+JiN4YTsJPHN0eWxlIHR5cGU9InRleHQvY3NzIj4mI3hhOwkuc3Qwe2ZpbGw6IzY2OWRmNjt9JiN4YTsJLnN0MXtmaWxsOiM0Mjg1ZjQ7fSYjeGE7CS5zdDJ7ZmlsbDojYWVjYmZhO30mI3hhOwk8L3N0eWxlPiYjeGE7CTxkZWZzPiYjeGE7CQk8ZmlsdGVyIGlkPSJBIiB4PSI0LjY0IiB5PSI0LjE5IiB3aWR0aD0iMTQuNzMiIGhlaWdodD0iMTIuNzYiIGZpbHRlclVuaXRzPSJ1c2VyU3BhY2VPblVzZSIgY29sb3ItaW50ZXJwb2xhdGlvbi1maWx0ZXJzPSJzUkdCIj4mI3hhOwkJCTxmZUZsb29kIGZsb29kLWNvbG9yPSIjZmZmIi8+JiN4YTsJCQk8ZmVCbGVuZCBpbj0iU291cmNlR3JhcGhpYyIvPiYjeGE7CQk8L2ZpbHRlcj4mI3hhOwkJPG1hc2sgaWQ9IkIiIHg9IjQuNjQiIHk9IjQuMTkiIHdpZHRoPSIxNC43MyIgaGVpZ2h0PSIxMi43NiIgbWFza1VuaXRzPSJ1c2VyU3BhY2VPblVzZSI+JiN4YTsJCQk8Y2lyY2xlIGN4PSIxMiIgY3k9IjEyLjIzIiByPSIzLjU4IiBmaWx0ZXI9InVybCgjQSkiLz4mI3hhOwkJPC9tYXNrPiYjeGE7CTwvZGVmcz4mI3hhOwk8ZyBjbGFzcz0ic3QwIj4mI3hhOwkJPGNpcmNsZSBjeD0iMTYuMTMiIGN5PSI2LjIxIiByPSIxLjcyIi8+JiN4YTsJCTxjaXJjbGUgY3g9IjIuMTkiIGN5PSI2LjIxIiByPSIxLjcyIi8+JiN4YTsJCTxjaXJjbGUgY3g9IjkuMTYiIGN5PSIxOC4yOCIgcj0iMS43MiIvPiYjeGE7CTwvZz4mI3hhOwk8ZyBtYXNrPSJ1cmwoI0IpIiB0cmFuc2Zvcm09InRyYW5zbGF0ZSgtMi44NCAtMikiPiYjeGE7CQk8cGF0aCB0cmFuc2Zvcm09Im1hdHJpeCguNSAtLjg3IC44NyAuNSAtNC41OSAyMC41MykiIGQ9Ik0xNC42OSAxMC4yMmgxLjU5djguMDRoLTEuNTl6IiBjbGFzcz0ic3QxIi8+JiN4YTsJCTxwYXRoIHRyYW5zZm9ybT0icm90YXRlKDMzMCA4LjUyMyAxNC4yNDQpIiBkPSJNNC40OSAxMy40NWg4LjA0djEuNTlINC40OXoiIGNsYXNzPSJzdDEiLz4mI3hhOwkJPHBhdGggZD0iTTExLjIgNC4xOWgxLjU5djguMDRIMTEuMnoiIGNsYXNzPSJzdDEiLz4mI3hhOwk8L2c+JiN4YTsJPGcgY2xhc3M9InN0MiI+JiN4YTsJCTxjaXJjbGUgY3g9IjkuMTYiIGN5PSIxMC4yMyIgcj0iMi43OCIvPiYjeGE7CQk8Y2lyY2xlIGN4PSIyLjE5IiBjeT0iMTQuMjUiIHI9IjIuMTkiLz4mI3hhOwkJPGNpcmNsZSBjeD0iMTYuMTMiIGN5PSIxNC4yNSIgcj0iMi4xOSIvPiYjeGE7CQk8Y2lyY2xlIGN4PSI5LjE2IiBjeT0iMi4xOSIgcj0iMi4xOSIvPiYjeGE7CTwvZz4mI3hhOzwvc3ZnPg==;" parent="j-hVJdmg6qWFekGqpGMa-23" vertex="1">
          <mxGeometry width="27" height="30" relative="1" as="geometry">
            <mxPoint x="16" y="15" as="offset" />
          </mxGeometry>
        </mxCell>
        <mxCell id="j-hVJdmg6qWFekGqpGMa-16" style="edgeStyle=orthogonalEdgeStyle;rounded=0;html=1;dashed=0;labelBackgroundColor=none;startArrow=none;startFill=0;startSize=4;endArrow=blockThin;endFill=1;endSize=4;strokeColor=#4284F3;strokeWidth=2;fontSize=12;" parent="j-hVJdmg6qWFekGqpGMa-1" source="j-hVJdmg6qWFekGqpGMa-23" target="j-hVJdmg6qWFekGqpGMa-25" edge="1">
          <mxGeometry relative="1" as="geometry" />
        </mxCell>
        <mxCell id="8QlmMuUSJovk6ntSGUV1-2" value="TLS" style="edgeLabel;html=1;align=center;verticalAlign=middle;resizable=0;points=[];" parent="j-hVJdmg6qWFekGqpGMa-16" vertex="1" connectable="0">
          <mxGeometry x="0.0864" y="-1" relative="1" as="geometry">
            <mxPoint x="-2" y="-11" as="offset" />
          </mxGeometry>
        </mxCell>
        <mxCell id="jn0M6a3lZUS5KLYDHOZ0-3" style="edgeStyle=orthogonalEdgeStyle;rounded=0;html=1;dashed=0;labelBackgroundColor=none;startArrow=none;startFill=0;startSize=4;endArrow=blockThin;endFill=1;endSize=4;strokeColor=#4284F3;strokeWidth=2;fontSize=12;exitX=0.989;exitY=0.533;exitDx=0;exitDy=0;entryX=0;entryY=0.5;entryDx=0;entryDy=0;exitPerimeter=0;" edge="1" parent="j-hVJdmg6qWFekGqpGMa-1" source="j-hVJdmg6qWFekGqpGMa-25" target="j-hVJdmg6qWFekGqpGMa-3">
          <mxGeometry relative="1" as="geometry">
            <mxPoint x="444.5" y="111.72000000000003" as="sourcePoint" />
            <mxPoint x="519.5" y="111.72000000000003" as="targetPoint" />
          </mxGeometry>
        </mxCell>
        <mxCell id="jn0M6a3lZUS5KLYDHOZ0-4" value="&lt;div&gt;TLS&lt;/div&gt;" style="edgeLabel;html=1;align=center;verticalAlign=middle;resizable=0;points=[];" vertex="1" connectable="0" parent="jn0M6a3lZUS5KLYDHOZ0-3">
          <mxGeometry x="-0.2355" y="1" relative="1" as="geometry">
            <mxPoint y="-9" as="offset" />
          </mxGeometry>
        </mxCell>
        <mxCell id="j-hVJdmg6qWFekGqpGMa-12" style="edgeStyle=orthogonalEdgeStyle;rounded=0;html=1;dashed=0;labelBackgroundColor=none;startArrow=none;startFill=0;startSize=4;endArrow=blockThin;endFill=1;endSize=4;strokeColor=#4284F3;strokeWidth=2;fontSize=12;exitX=0;exitY=0.5;exitDx=0;exitDy=0;entryX=0.5;entryY=1;entryDx=0;entryDy=0;" parent="1" source="j-hVJdmg6qWFekGqpGMa-27" target="j-hVJdmg6qWFekGqpGMa-13" edge="1">
          <mxGeometry relative="1" as="geometry">
            <Array as="points">
              <mxPoint x="155" y="430" />
            </Array>
            <mxPoint x="235.25" y="305" as="sourcePoint" />
          </mxGeometry>
        </mxCell>
        <mxCell id="8QlmMuUSJovk6ntSGUV1-6" value="TLS" style="edgeLabel;html=1;align=center;verticalAlign=middle;resizable=0;points=[];" parent="j-hVJdmg6qWFekGqpGMa-12" vertex="1" connectable="0">
          <mxGeometry x="-0.28" relative="1" as="geometry">
            <mxPoint y="-9" as="offset" />
          </mxGeometry>
        </mxCell>
        <mxCell id="j-hVJdmg6qWFekGqpGMa-13" value="SchwarzShuttle&lt;br&gt;&lt;font style=&quot;font-size: 10px&quot;&gt;Application&lt;/font&gt;" style="rounded=1;absoluteArcSize=1;arcSize=2;html=1;strokeColor=none;gradientColor=none;shadow=0;dashed=0;fontSize=12;fontColor=#9E9E9E;align=left;verticalAlign=top;spacing=10;spacingTop=-4;fillColor=#EFEBE9;" parent="1" vertex="1">
          <mxGeometry x="100" y="267.88" width="110" height="125" as="geometry" />
        </mxCell>
        <mxCell id="j-hVJdmg6qWFekGqpGMa-14" value="" style="strokeColor=#dddddd;fillColor=#ffffff;shadow=1;strokeWidth=1;rounded=1;absoluteArcSize=1;arcSize=2;labelPosition=center;verticalLabelPosition=middle;align=center;verticalAlign=bottom;spacingLeft=0;fontColor=#999999;fontSize=12;whiteSpace=wrap;spacingBottom=2;html=1;" parent="1" vertex="1">
          <mxGeometry x="120" y="312.88" width="70" height="70" as="geometry" />
        </mxCell>
        <mxCell id="j-hVJdmg6qWFekGqpGMa-15" value="" style="dashed=0;connectable=0;html=1;fillColor=#757575;strokeColor=none;shape=mxgraph.gcp2.application;part=1;" parent="j-hVJdmg6qWFekGqpGMa-14" vertex="1">
          <mxGeometry x="0.5" width="50" height="40" relative="1" as="geometry">
            <mxPoint x="-25" y="15" as="offset" />
          </mxGeometry>
        </mxCell>
        <mxCell id="j-hVJdmg6qWFekGqpGMa-17" style="edgeStyle=orthogonalEdgeStyle;rounded=0;html=1;dashed=0;labelBackgroundColor=none;startArrow=none;startFill=0;startSize=4;endArrow=blockThin;endFill=1;endSize=4;strokeColor=#4284F3;strokeWidth=2;fontSize=12;entryX=1;entryY=0.5;entryDx=0;entryDy=0;" parent="1" source="j-hVJdmg6qWFekGqpGMa-25" target="j-hVJdmg6qWFekGqpGMa-27" edge="1">
          <mxGeometry relative="1" as="geometry">
            <Array as="points">
              <mxPoint x="554" y="430" />
            </Array>
            <mxPoint x="554.0285714285715" y="410" as="targetPoint" />
          </mxGeometry>
        </mxCell>
        <mxCell id="8QlmMuUSJovk6ntSGUV1-5" value="TLS" style="edgeLabel;html=1;align=center;verticalAlign=middle;resizable=0;points=[];" parent="j-hVJdmg6qWFekGqpGMa-17" vertex="1" connectable="0">
          <mxGeometry x="-0.2449" y="-1" relative="1" as="geometry">
            <mxPoint x="17" y="-7" as="offset" />
          </mxGeometry>
        </mxCell>
        <mxCell id="j-hVJdmg6qWFekGqpGMa-18" value="Report &amp;amp; Share&lt;br&gt;&lt;font style=&quot;font-size: 10px&quot;&gt;Business Analysis&lt;/font&gt;&lt;br&gt;" style="rounded=1;absoluteArcSize=1;arcSize=2;html=1;strokeColor=none;gradientColor=none;shadow=0;dashed=0;fontSize=12;fontColor=#9E9E9E;align=left;verticalAlign=top;spacing=10;spacingTop=-4;fillColor=#F3E5F5;" parent="1" vertex="1">
          <mxGeometry x="1020" y="267.88" width="170" height="128" as="geometry" />
        </mxCell>
        <mxCell id="j-hVJdmg6qWFekGqpGMa-19" value="" style="strokeColor=#dddddd;fillColor=#ffffff;shadow=1;strokeWidth=1;rounded=1;absoluteArcSize=1;arcSize=2;labelPosition=center;verticalLabelPosition=middle;align=center;verticalAlign=bottom;spacingLeft=0;fontColor=#999999;fontSize=12;whiteSpace=wrap;spacingBottom=2;html=1;" parent="1" vertex="1">
          <mxGeometry x="1030" y="314.88" width="70" height="70" as="geometry" />
        </mxCell>
        <mxCell id="j-hVJdmg6qWFekGqpGMa-20" value="" style="dashed=0;connectable=0;html=1;fillColor=#757575;strokeColor=none;shape=mxgraph.gcp2.report;part=1;" parent="j-hVJdmg6qWFekGqpGMa-19" vertex="1">
          <mxGeometry x="0.5" width="50" height="50" relative="1" as="geometry">
            <mxPoint x="-25" y="10" as="offset" />
          </mxGeometry>
        </mxCell>
        <mxCell id="j-hVJdmg6qWFekGqpGMa-21" value="" style="strokeColor=#dddddd;fillColor=#ffffff;shadow=1;strokeWidth=1;rounded=1;absoluteArcSize=1;arcSize=2;labelPosition=center;verticalLabelPosition=middle;align=center;verticalAlign=bottom;spacingLeft=0;fontColor=#999999;fontSize=12;whiteSpace=wrap;spacingBottom=2;html=1;" parent="1" vertex="1">
          <mxGeometry x="1110" y="314.88" width="70" height="70" as="geometry" />
        </mxCell>
        <mxCell id="j-hVJdmg6qWFekGqpGMa-22" value="" style="dashed=0;connectable=0;html=1;fillColor=#757575;strokeColor=none;shape=mxgraph.gcp2.users;part=1;" parent="j-hVJdmg6qWFekGqpGMa-21" vertex="1">
          <mxGeometry x="0.5" width="50" height="31.5" relative="1" as="geometry">
            <mxPoint x="-25" y="19.25" as="offset" />
          </mxGeometry>
        </mxCell>
        <mxCell id="j-hVJdmg6qWFekGqpGMa-27" value="" style="strokeColor=#dddddd;shadow=1;strokeWidth=1;rounded=1;absoluteArcSize=1;arcSize=2;" parent="1" vertex="1">
          <mxGeometry x="350" y="400" width="170" height="60" as="geometry" />
        </mxCell>
        <mxCell id="j-hVJdmg6qWFekGqpGMa-28" value="&lt;font color=&quot;#000000&quot;&gt;taxi_response&lt;/font&gt;&lt;div&gt;Pub/Sub&lt;/div&gt;" style="editableCssRules=.*;html=1;fontColor=#999999;shape=image;verticalLabelPosition=middle;verticalAlign=middle;labelPosition=right;align=left;spacingLeft=20;part=1;points=[];imageAspect=0;image=data:image/svg+xml,PHN2ZyB4bWxucz0iaHR0cDovL3d3dy53My5vcmcvMjAwMC9zdmciIHhtbG5zOnY9Imh0dHBzOi8vdmVjdGEuaW8vbmFubyIgd2lkdGg9IjE4LjMxOTk5OTY5NDgyNDIyIiBoZWlnaHQ9IjIwLjAwMDAwMTkwNzM0ODYzMyIgdmlld0JveD0iMCAwIDE4LjMxOTk5OTY5NDgyNDIyIDIwLjAwMDAwMTkwNzM0ODYzMyI+JiN4YTsJPHN0eWxlIHR5cGU9InRleHQvY3NzIj4mI3hhOwkuc3Qwe2ZpbGw6IzY2OWRmNjt9JiN4YTsJLnN0MXtmaWxsOiM0Mjg1ZjQ7fSYjeGE7CS5zdDJ7ZmlsbDojYWVjYmZhO30mI3hhOwk8L3N0eWxlPiYjeGE7CTxkZWZzPiYjeGE7CQk8ZmlsdGVyIGlkPSJBIiB4PSI0LjY0IiB5PSI0LjE5IiB3aWR0aD0iMTQuNzMiIGhlaWdodD0iMTIuNzYiIGZpbHRlclVuaXRzPSJ1c2VyU3BhY2VPblVzZSIgY29sb3ItaW50ZXJwb2xhdGlvbi1maWx0ZXJzPSJzUkdCIj4mI3hhOwkJCTxmZUZsb29kIGZsb29kLWNvbG9yPSIjZmZmIi8+JiN4YTsJCQk8ZmVCbGVuZCBpbj0iU291cmNlR3JhcGhpYyIvPiYjeGE7CQk8L2ZpbHRlcj4mI3hhOwkJPG1hc2sgaWQ9IkIiIHg9IjQuNjQiIHk9IjQuMTkiIHdpZHRoPSIxNC43MyIgaGVpZ2h0PSIxMi43NiIgbWFza1VuaXRzPSJ1c2VyU3BhY2VPblVzZSI+JiN4YTsJCQk8Y2lyY2xlIGN4PSIxMiIgY3k9IjEyLjIzIiByPSIzLjU4IiBmaWx0ZXI9InVybCgjQSkiLz4mI3hhOwkJPC9tYXNrPiYjeGE7CTwvZGVmcz4mI3hhOwk8ZyBjbGFzcz0ic3QwIj4mI3hhOwkJPGNpcmNsZSBjeD0iMTYuMTMiIGN5PSI2LjIxIiByPSIxLjcyIi8+JiN4YTsJCTxjaXJjbGUgY3g9IjIuMTkiIGN5PSI2LjIxIiByPSIxLjcyIi8+JiN4YTsJCTxjaXJjbGUgY3g9IjkuMTYiIGN5PSIxOC4yOCIgcj0iMS43MiIvPiYjeGE7CTwvZz4mI3hhOwk8ZyBtYXNrPSJ1cmwoI0IpIiB0cmFuc2Zvcm09InRyYW5zbGF0ZSgtMi44NCAtMikiPiYjeGE7CQk8cGF0aCB0cmFuc2Zvcm09Im1hdHJpeCguNSAtLjg3IC44NyAuNSAtNC41OSAyMC41MykiIGQ9Ik0xNC42OSAxMC4yMmgxLjU5djguMDRoLTEuNTl6IiBjbGFzcz0ic3QxIi8+JiN4YTsJCTxwYXRoIHRyYW5zZm9ybT0icm90YXRlKDMzMCA4LjUyMyAxNC4yNDQpIiBkPSJNNC40OSAxMy40NWg4LjA0djEuNTlINC40OXoiIGNsYXNzPSJzdDEiLz4mI3hhOwkJPHBhdGggZD0iTTExLjIgNC4xOWgxLjU5djguMDRIMTEuMnoiIGNsYXNzPSJzdDEiLz4mI3hhOwk8L2c+JiN4YTsJPGcgY2xhc3M9InN0MiI+JiN4YTsJCTxjaXJjbGUgY3g9IjkuMTYiIGN5PSIxMC4yMyIgcj0iMi43OCIvPiYjeGE7CQk8Y2lyY2xlIGN4PSIyLjE5IiBjeT0iMTQuMjUiIHI9IjIuMTkiLz4mI3hhOwkJPGNpcmNsZSBjeD0iMTYuMTMiIGN5PSIxNC4yNSIgcj0iMi4xOSIvPiYjeGE7CQk8Y2lyY2xlIGN4PSI5LjE2IiBjeT0iMi4xOSIgcj0iMi4xOSIvPiYjeGE7CTwvZz4mI3hhOzwvc3ZnPg==;" parent="j-hVJdmg6qWFekGqpGMa-27" vertex="1">
          <mxGeometry width="27" height="30" relative="1" as="geometry">
            <mxPoint x="16" y="15" as="offset" />
          </mxGeometry>
        </mxCell>
        <mxCell id="j-hVJdmg6qWFekGqpGMa-29" style="edgeStyle=orthogonalEdgeStyle;rounded=0;html=1;dashed=0;labelBackgroundColor=none;startArrow=none;startFill=0;startSize=4;endArrow=blockThin;endFill=1;endSize=4;strokeColor=#4284F3;strokeWidth=2;fontSize=12;exitX=1;exitY=0.5;exitDx=0;exitDy=0;entryX=0;entryY=0.5;entryDx=0;entryDy=0;" parent="1" source="j-hVJdmg6qWFekGqpGMa-13" target="j-hVJdmg6qWFekGqpGMa-23" edge="1">
          <mxGeometry relative="1" as="geometry">
            <mxPoint x="427" y="340" as="sourcePoint" />
            <mxPoint x="456" y="340" as="targetPoint" />
          </mxGeometry>
        </mxCell>
        <mxCell id="8QlmMuUSJovk6ntSGUV1-1" value="&lt;div&gt;TLS&lt;/div&gt;" style="edgeLabel;html=1;align=center;verticalAlign=middle;resizable=0;points=[];" parent="j-hVJdmg6qWFekGqpGMa-29" vertex="1" connectable="0">
          <mxGeometry x="-0.2355" y="1" relative="1" as="geometry">
            <mxPoint y="-9" as="offset" />
          </mxGeometry>
        </mxCell>
        <mxCell id="j-hVJdmg6qWFekGqpGMa-31" style="edgeStyle=orthogonalEdgeStyle;rounded=0;html=1;dashed=0;labelBackgroundColor=none;startArrow=none;startFill=0;startSize=4;endArrow=blockThin;endFill=1;endSize=4;strokeColor=#4284F3;strokeWidth=2;fontSize=12;exitX=0.984;exitY=0.437;exitDx=0;exitDy=0;entryX=-0.014;entryY=0.47;entryDx=0;entryDy=0;entryPerimeter=0;exitPerimeter=0;" parent="1" source="j-hVJdmg6qWFekGqpGMa-3" target="j-hVJdmg6qWFekGqpGMa-18" edge="1">
          <mxGeometry relative="1" as="geometry">
            <mxPoint x="865.88" y="331.6" as="sourcePoint" />
            <mxPoint x="917.88" y="331.6" as="targetPoint" />
          </mxGeometry>
        </mxCell>
        <mxCell id="8QlmMuUSJovk6ntSGUV1-4" value="TLS" style="edgeLabel;html=1;align=center;verticalAlign=middle;resizable=0;points=[];" parent="j-hVJdmg6qWFekGqpGMa-31" vertex="1" connectable="0">
          <mxGeometry x="0.1474" y="2" relative="1" as="geometry">
            <mxPoint x="-4" y="-11" as="offset" />
          </mxGeometry>
        </mxCell>
      </root>
    </mxGraphModel>
  </diagram>
</mxfile>
